<svg width="127" height="40" viewBox="0 0 127 40" fill="none" xmlns="http://www.w3.org/2000/svg">
<path d="M55.5792 10.4553C55.7659 10.1913 55.8459 10.0065 55.8193 9.90087C55.7926 9.79526 55.7126 9.66324 55.5792 9.50483C55.4459 9.34641 55.3926 9.2144 55.3926 9.13519V9.08239C55.3926 8.89757 55.5259 8.81836 55.8193 8.81836H58.2462C58.5129 8.81836 58.6462 8.89757 58.6462 9.08239V9.13519C58.6462 9.2408 58.5662 9.37281 58.4062 9.47843C58.2462 9.58404 58.0328 9.74245 57.7661 9.90087C57.4994 10.0857 57.2594 10.2705 57.0994 10.4553L53.9524 13.5708L58.5929 20.9636C58.7529 21.2276 58.9396 21.4388 59.1263 21.5972C59.313 21.7557 59.4463 21.8877 59.5263 21.9669C59.6063 22.0461 59.6597 22.1517 59.6597 22.2573V22.3101C59.6597 22.4949 59.5263 22.5741 59.2596 22.5741H55.7926C55.5259 22.5741 55.3926 22.4949 55.3926 22.3101V22.2573C55.3926 22.1781 55.4992 22.0197 55.7393 21.7821C55.9526 21.5444 56.006 21.3332 55.8993 21.0956L52.3256 15.1814L49.872 17.6104V20.9636C49.872 21.254 50.0053 21.518 50.272 21.7293C50.5387 21.9669 50.6721 22.1253 50.6721 22.2573V22.3101C50.6721 22.4949 50.5387 22.5741 50.2454 22.5741H47.1784C46.9117 22.5741 46.7783 22.4949 46.7783 22.3101V22.2573C46.7783 22.1517 46.9117 21.9669 47.1517 21.7293C47.3917 21.4916 47.5251 21.2276 47.5251 20.9636V10.4289C47.5251 10.1385 47.3917 9.90087 47.1517 9.66324C46.9117 9.42562 46.7783 9.2672 46.7783 9.16159V9.10879C46.7783 8.92397 46.9117 8.84476 47.1784 8.84476H50.2454C50.512 8.84476 50.6454 8.92397 50.6454 9.10879V9.16159C50.6454 9.2672 50.512 9.45202 50.2454 9.66324C49.9787 9.90087 49.8453 10.1385 49.8453 10.4289V16.1319L55.5792 10.4553Z" fill="white"/>
<path d="M64.3 22.7854C62.9665 22.7854 61.8464 22.3366 60.9663 21.4389C60.0862 20.5412 59.6328 19.3531 59.6328 17.8745C59.6328 16.5016 60.0862 15.3663 60.993 14.4686C61.8997 13.5709 63.0198 13.1221 64.3266 13.1221C65.5001 13.1221 66.4069 13.4125 67.0469 13.9934C67.687 14.5742 68.007 15.2343 68.007 16C68.007 16.66 67.6603 17.1089 66.9936 17.3465L62.2464 19.0099C62.4864 19.6699 62.8598 20.198 63.3665 20.5676C63.8733 20.9373 64.46 21.1221 65.1267 21.1221C65.7134 21.1221 66.2202 20.9901 66.6736 20.726C67.1003 20.462 67.447 20.1188 67.6337 19.7227C67.7403 19.5643 67.8737 19.5379 68.0337 19.5643C68.1937 19.6171 68.2737 19.7227 68.2737 19.9075C68.167 20.594 67.767 21.2541 67.0469 21.8613C66.3535 22.4686 65.4201 22.7854 64.3 22.7854ZM61.9264 16.9769C61.9264 17.4257 61.9531 17.8217 62.0331 18.2178L65.2867 16.8184C65.6334 16.66 65.7935 16.396 65.7935 16C65.7935 15.5247 65.6068 15.0495 65.2601 14.5478C64.8867 14.0462 64.46 13.8085 63.9266 13.8085C63.3132 13.8085 62.8331 14.099 62.4598 14.6798C62.0864 15.2607 61.9264 16.0264 61.9264 16.9769Z" fill="white"/>
<path d="M76.7011 22.6007C76.4078 22.6007 76.2744 22.495 76.2744 22.3102V22.231C76.2744 22.1254 76.4078 21.9406 76.6478 21.7294C76.8878 21.4917 76.9945 21.2541 76.9945 20.9637L76.8078 17.2145C76.7278 15.0759 76.0344 14.0198 74.7543 14.0198C74.1409 14.0198 73.6341 14.231 73.2608 14.6799C72.8874 15.1287 72.7007 15.7096 72.7007 16.4224V20.9901C72.7007 21.2805 72.8341 21.5181 73.1008 21.7558C73.3674 21.967 73.5008 22.1518 73.5008 22.2574V22.3366C73.5008 22.5214 73.3674 22.6271 73.0741 22.6271H70.0338C69.7671 22.6271 69.6337 22.5214 69.6337 22.3366V22.2574C69.6337 22.1518 69.7671 21.967 70.0338 21.7558C70.3005 21.5445 70.4338 21.2805 70.4338 20.9901V15.7888C70.4338 15.5511 70.3538 15.3399 70.2204 15.1815C70.0604 15.0231 69.9271 14.8911 69.7671 14.8119C69.6337 14.7063 69.5537 14.6007 69.5537 14.495V14.4422C69.5537 14.3102 69.6604 14.2046 69.9004 14.099L71.794 13.2013C72.0073 13.1221 72.1673 13.0957 72.2473 13.1749C72.354 13.2541 72.4073 13.3597 72.4073 13.5445V14.7855C72.674 14.2574 73.0741 13.835 73.6075 13.5445C74.1409 13.2541 74.7276 13.0957 75.3943 13.0957C76.4078 13.0957 77.2612 13.4389 77.9546 14.1254C78.648 14.8119 79.048 15.868 79.1281 17.3201L79.3681 20.9901C79.3681 21.2805 79.5014 21.5181 79.7415 21.7558C79.9815 21.9934 80.0882 22.1518 80.0882 22.2574V22.3366C80.0882 22.5214 79.9281 22.6271 79.6348 22.6271H76.7011V22.6007Z" fill="white"/>
<path d="M85.4495 20.8845C84.1961 20.8845 83.156 20.5149 82.3292 19.7756C81.4758 19.0363 81.0491 18.1386 81.0491 17.0561C81.0491 15.8944 81.4758 14.9175 82.3025 14.1782C83.1293 13.439 84.2227 13.0693 85.5562 13.0693C85.9029 13.0693 86.4363 13.0957 87.183 13.1749C87.9298 13.2542 88.7032 13.2806 89.5033 13.2806C89.77 13.2806 89.9833 13.307 90.1433 13.3598C90.3034 13.4126 90.3834 13.4654 90.41 13.5446C90.4367 13.6238 90.41 13.703 90.3567 13.8086C90.3034 13.967 90.1967 14.0726 90.0367 14.1518C89.8767 14.2046 89.6633 14.2575 89.3966 14.3103C89.1032 14.3631 88.9432 14.3895 88.8365 14.4159C89.2099 14.7327 89.5033 15.1287 89.7166 15.604C89.9567 16.0792 90.0633 16.5281 90.0633 17.0033C90.0633 17.769 89.85 18.4555 89.4499 19.0363C89.0499 19.6436 88.4898 20.0924 87.7698 20.4357C89.3966 20.8053 90.1967 21.571 90.1967 22.7591C90.1967 23.604 89.7433 24.2905 88.8632 24.7921C87.9831 25.2938 86.8363 25.5578 85.4762 25.5578C84.0894 25.5578 82.9693 25.2674 82.1692 24.7129C81.3691 24.1584 80.9424 23.4984 80.9424 22.7327C80.9424 22.4687 81.0224 22.2575 81.1824 22.0726C81.3424 21.8878 81.5825 21.8086 81.8758 21.8086C82.1425 21.8086 82.3559 21.9142 82.5426 22.1254C82.7292 22.3367 82.8626 22.5743 82.9959 22.8647C83.1293 23.1551 83.2893 23.4456 83.4493 23.736C83.636 24.0264 83.9027 24.2905 84.2494 24.5017C84.5961 24.7129 85.0228 24.8185 85.5562 24.8185C86.2763 24.8185 86.8363 24.6337 87.2364 24.2641C87.6631 23.8944 87.8764 23.4192 87.8764 22.8119C87.8764 22.2575 87.7164 21.8086 87.4231 21.439C87.1297 21.0693 86.703 20.8581 86.1696 20.8317C85.8496 20.8845 85.6095 20.8845 85.4495 20.8845ZM83.316 16.1056C83.316 17.2146 83.556 18.1386 84.0627 18.9571C84.5694 19.7492 85.1562 20.1452 85.8229 20.1452C86.4096 20.1452 86.8897 19.934 87.2631 19.5116C87.6098 19.0891 87.7964 18.5347 87.7964 17.8482C87.7964 16.7393 87.5564 15.8152 87.0497 15.0231C86.5696 14.2311 85.9296 13.835 85.1828 13.835C84.5961 13.835 84.1427 14.0462 83.8227 14.4687C83.476 14.8911 83.316 15.4192 83.316 16.1056Z" fill="white"/>
<path d="M99.5572 22.7063C99.0238 22.7063 98.6504 22.6271 98.4104 22.4687C98.1704 22.3103 98.037 21.9935 97.9837 21.5446C97.4503 22.3631 96.5435 22.7855 95.2634 22.7855C94.17 22.7855 93.2899 22.5215 92.5965 22.0199C91.9297 21.5182 91.583 20.7789 91.583 19.8548C91.583 18.9308 91.903 18.2179 92.5698 17.7162C93.2365 17.2146 94.0899 16.9506 95.1301 16.9506C96.0635 16.9506 96.8369 17.1618 97.397 17.6106L97.3703 17.2146C97.2636 16.0265 97.0503 15.1552 96.7302 14.6271C96.4369 14.0727 95.9568 13.8086 95.2901 13.8086C94.89 13.8086 94.5433 13.9407 94.2766 14.1783C94.0099 14.4159 93.8232 14.6799 93.7166 14.9704C93.6099 15.2608 93.4765 15.5248 93.2899 15.7624C93.1032 16.0001 92.8631 16.1321 92.5965 16.1321C92.3031 16.1321 92.0897 16.0529 91.903 15.8945C91.7164 15.736 91.6364 15.5248 91.6364 15.2344C91.6364 14.6271 91.9831 14.0991 92.6765 13.6766C93.3699 13.2542 94.2233 13.043 95.2634 13.043C96.4902 13.043 97.477 13.4126 98.2504 14.1255C98.9971 14.8383 99.4505 15.8416 99.5838 17.0826L99.9839 20.8053C100.011 21.0958 100.091 21.307 100.197 21.4654C100.331 21.6238 100.437 21.7294 100.571 21.7558C100.704 21.7822 100.811 21.835 100.917 21.9143C101.024 21.9935 101.077 22.0727 101.077 22.1783C101.157 22.5479 100.624 22.7063 99.5572 22.7063ZM93.9033 19.5908C93.9033 20.2773 94.0899 20.8582 94.4633 21.3334C94.8367 21.8086 95.3167 22.0463 95.9035 22.0463C96.4369 22.0463 96.8636 21.8615 97.2103 21.4654C97.557 21.0694 97.6903 20.6205 97.6637 20.0925L97.5836 19.4852C97.557 18.9308 97.3703 18.4819 97.0236 18.1651C96.6769 17.8482 96.2502 17.6898 95.7434 17.6898C95.1834 17.6898 94.7567 17.8747 94.41 18.2179C94.0899 18.5347 93.9033 19.01 93.9033 19.5908Z" fill="white"/>
<path d="M102.597 22.6005C102.331 22.6005 102.197 22.5213 102.197 22.3364V22.2836C102.197 22.178 102.331 21.9932 102.571 21.782C102.811 21.5444 102.944 21.3067 102.944 21.0163V10.4553C102.944 10.1648 102.811 9.9272 102.571 9.68958C102.331 9.45195 102.197 9.29354 102.197 9.18793V9.13512C102.197 8.9503 102.331 8.87109 102.597 8.87109H107.024C108.811 8.87109 110.251 9.24073 111.318 9.9536C112.385 10.6929 112.945 11.749 112.945 13.1747C112.945 13.9932 112.705 14.7589 112.198 15.4454C111.692 16.1318 110.972 16.6335 110.038 16.9767L112.812 20.9899C112.972 21.2275 113.158 21.4123 113.398 21.5708C113.638 21.7292 113.798 21.8612 113.932 21.9404C114.065 22.0196 114.119 22.1252 114.119 22.2572V22.31C114.119 22.4949 113.985 22.5741 113.718 22.5741H110.305C110.038 22.5741 109.905 22.4949 109.905 22.31V22.2572C109.905 22.1516 109.985 22.046 110.118 21.914C110.251 21.782 110.358 21.6764 110.411 21.5708C110.465 21.4652 110.438 21.2803 110.305 20.9899L107.825 17.2935H107.665L105.318 17.3199V20.9635C105.318 21.2539 105.451 21.4916 105.718 21.7292C105.984 21.9668 106.118 22.1252 106.118 22.2308V22.2836C106.118 22.4685 105.984 22.5477 105.691 22.5477H102.597V22.6005ZM105.291 15.2341C105.291 15.9734 105.611 16.343 106.251 16.343H107.344C108.305 16.343 109.078 16.079 109.638 15.5774C110.225 15.0757 110.491 14.3628 110.491 13.4123C110.491 12.277 110.145 11.3793 109.425 10.7457C108.705 10.112 107.851 9.79519 106.838 9.79519H105.851C105.451 9.79519 105.264 10.0592 105.264 10.5609V15.2341H105.291Z" fill="white"/>
<path d="M119.079 22.7851C117.985 22.7851 117.105 22.4155 116.439 21.7026C115.772 20.9898 115.452 19.9337 115.452 18.5607V15.2076C115.452 14.9172 115.318 14.6531 115.078 14.4155C114.838 14.1779 114.705 14.0195 114.705 13.9139V13.8611C114.705 13.6762 114.812 13.5442 115.052 13.5178L117.105 13.201C117.559 13.1482 117.772 13.2274 117.772 13.4914L117.745 18.8248C117.745 20.8842 118.385 21.9139 119.692 21.9139C120.279 21.9139 120.786 21.6762 121.186 21.201C121.586 20.7257 121.799 20.0921 121.799 19.3V15.2076C121.799 14.9172 121.666 14.6531 121.426 14.4155C121.159 14.1779 121.052 14.0195 121.052 13.9139V13.8611C121.052 13.6762 121.159 13.5442 121.372 13.5178L123.479 13.201C123.906 13.1482 124.119 13.2274 124.093 13.4914V20.8049C124.093 21.1482 124.146 21.3858 124.253 21.5706C124.359 21.729 124.466 21.8347 124.599 21.8611C124.733 21.8875 124.839 21.9139 124.946 21.9667C125.053 22.0195 125.106 22.1251 125.106 22.2571C125.106 22.5739 124.626 22.7323 123.639 22.7323C123.079 22.7323 122.679 22.6267 122.413 22.4155C122.146 22.2043 122.039 21.8347 122.039 21.3066C121.452 22.2835 120.466 22.7851 119.079 22.7851Z" fill="white"/>
<path d="M46.084 29.1217V28.6465H49.4977V29.1217H48.0575V33.1349H47.4975V29.1217H46.084Z" fill="white"/>
<path d="M49.8975 33.1091V29.7296H50.4042V30.2312H50.4309C50.4842 30.0728 50.6175 29.9408 50.7775 29.8352C50.9376 29.7296 51.1243 29.6768 51.3376 29.6768C51.3643 29.6768 51.4176 29.6768 51.471 29.6768C51.5243 29.6768 51.5776 29.6768 51.6043 29.6768V30.2048C51.5776 30.2048 51.551 30.2048 51.471 30.1784C51.3909 30.152 51.3376 30.152 51.2843 30.152C51.1243 30.152 50.9642 30.1784 50.8309 30.2576C50.6975 30.3368 50.5909 30.416 50.5375 30.548C50.4575 30.6801 50.4309 30.8121 50.4309 30.9441V33.0827H49.8975V33.1091Z" fill="white"/>
<path d="M53.5513 33.1882C53.2313 33.1882 52.9379 33.109 52.6979 32.977C52.4579 32.845 52.2712 32.6338 52.1379 32.3698C52.0045 32.1057 51.9512 31.8153 51.9512 31.4721C51.9512 31.1288 52.0045 30.812 52.1379 30.548C52.2712 30.2839 52.4312 30.0727 52.6712 29.9407C52.9113 29.7823 53.178 29.7295 53.4713 29.7295C53.658 29.7295 53.818 29.7559 54.0047 29.8087C54.1647 29.8615 54.3248 29.9671 54.4848 30.0991C54.6181 30.2311 54.7515 30.416 54.8315 30.6272C54.9115 30.8384 54.9648 31.1024 54.9648 31.4193V31.6305H52.3512V31.1552H54.4314C54.4314 30.9704 54.4048 30.7856 54.3248 30.6536C54.2447 30.4952 54.1381 30.3896 54.0047 30.3104C53.8714 30.2311 53.7114 30.1783 53.5247 30.1783C53.3113 30.1783 53.1246 30.2311 52.9913 30.3368C52.8313 30.4424 52.7246 30.5744 52.6446 30.7328C52.5646 30.8912 52.5112 31.076 52.5112 31.2608V31.5513C52.5112 31.8153 52.5646 32.0265 52.6446 32.1849C52.7246 32.3698 52.8579 32.5018 53.018 32.581C53.178 32.6602 53.3647 32.713 53.578 32.713C53.7114 32.713 53.8447 32.6866 53.9514 32.6602C54.0581 32.6338 54.1647 32.5546 54.2447 32.4754C54.3248 32.3962 54.3781 32.2905 54.4314 32.1849L54.9382 32.317C54.8848 32.4754 54.8048 32.6338 54.6715 32.7658C54.5381 32.8978 54.3781 33.0034 54.2181 33.0562C54.0047 33.1618 53.7914 33.1882 53.5513 33.1882Z" fill="white"/>
<path d="M56.7516 33.1883C56.5382 33.1883 56.3515 33.1355 56.1649 33.0563C55.9782 32.9771 55.8448 32.8451 55.7381 32.7131C55.6315 32.5547 55.5781 32.3699 55.5781 32.1586C55.5781 31.9738 55.6048 31.8154 55.6848 31.6834C55.7648 31.5514 55.8715 31.4722 56.0048 31.393C56.1382 31.3138 56.2715 31.261 56.4316 31.2345C56.5916 31.2081 56.7516 31.1817 56.9116 31.1553C57.125 31.1289 57.285 31.1025 57.4183 31.1025C57.5517 31.0761 57.6317 31.0761 57.7117 31.0233C57.765 30.9969 57.7917 30.9441 57.7917 30.8385V30.8121C57.7917 30.6009 57.7384 30.4161 57.605 30.3105C57.4983 30.1784 57.3116 30.1256 57.0716 30.1256C56.8316 30.1256 56.6182 30.1784 56.4849 30.2841C56.3515 30.3897 56.2449 30.4953 56.1915 30.6273L55.6848 30.4425C55.7648 30.2312 55.8982 30.0728 56.0315 29.9672C56.1915 29.8616 56.3515 29.7824 56.5116 29.7296C56.6982 29.6768 56.8583 29.6504 57.0449 29.6504C57.1516 29.6504 57.285 29.6504 57.4183 29.6768C57.5517 29.7032 57.7117 29.756 57.845 29.8352C57.9784 29.9144 58.0851 30.0464 58.1917 30.2048C58.2717 30.3633 58.3251 30.5745 58.3251 30.8385V33.0563H57.7917V32.6075H57.765C57.7384 32.6867 57.6583 32.7659 57.5783 32.8451C57.4983 32.9243 57.3916 33.0035 57.2583 33.0563C57.125 33.1619 56.9649 33.1883 56.7516 33.1883ZM56.8316 32.7395C57.0449 32.7395 57.205 32.6867 57.365 32.6075C57.4983 32.5283 57.605 32.4227 57.685 32.2907C57.765 32.1586 57.7917 32.0266 57.7917 31.8946V31.4194C57.765 31.4458 57.7117 31.4722 57.6583 31.4986C57.5783 31.525 57.4983 31.525 57.3916 31.5514C57.285 31.5778 57.205 31.5778 57.0983 31.5778C57.0183 31.5778 56.9383 31.6042 56.8849 31.6042C56.7516 31.6306 56.6182 31.657 56.5116 31.6834C56.4049 31.7098 56.2982 31.789 56.2182 31.8682C56.1382 31.9474 56.1115 32.053 56.1115 32.185C56.1115 32.3699 56.1915 32.5019 56.3249 32.5811C56.4582 32.6867 56.6449 32.7395 56.8316 32.7395Z" fill="white"/>
<path d="M60.7524 29.756V30.2048H58.9922V29.756H60.7524ZM59.5256 28.9375H60.059V32.1586C60.059 32.317 60.0856 32.4226 60.1123 32.4755C60.1656 32.5547 60.219 32.6075 60.2723 32.6075C60.3523 32.6339 60.4057 32.6339 60.4857 32.6339C60.539 32.6339 60.5924 32.6339 60.619 32.6339C60.6457 32.6339 60.6724 32.6339 60.699 32.6075L60.8057 33.0827C60.779 33.1091 60.7257 33.1091 60.6457 33.1355C60.5924 33.1619 60.5123 33.1619 60.4057 33.1619C60.2457 33.1619 60.1123 33.1355 59.979 33.0563C59.8456 33.0035 59.7123 32.8979 59.6323 32.7659C59.5522 32.6339 59.4989 32.4755 59.4989 32.2906V28.9375H59.5256Z" fill="white"/>
<path d="M64.7797 29.756V30.2048H63.0195V29.756H64.7797ZM63.5529 28.9375H64.0863V32.1586C64.0863 32.317 64.113 32.4226 64.1396 32.4755C64.193 32.5547 64.2463 32.6075 64.2997 32.6075C64.3797 32.6339 64.433 32.6339 64.513 32.6339C64.5664 32.6339 64.6197 32.6339 64.6464 32.6339C64.673 32.6339 64.6997 32.6339 64.7264 32.6075L64.8331 33.0827C64.8064 33.1091 64.753 33.1091 64.673 33.1355C64.6197 33.1619 64.5397 33.1619 64.433 33.1619C64.273 33.1619 64.1396 33.1355 64.0063 33.0563C63.873 33.0035 63.7396 32.8979 63.6596 32.7659C63.5796 32.6339 63.5262 32.4755 63.5262 32.2906V28.9375H63.5529Z" fill="white"/>
<path d="M66.9391 33.1883C66.6191 33.1883 66.3524 33.1091 66.139 32.9771C65.899 32.845 65.739 32.6338 65.6056 32.3698C65.4723 32.1058 65.4189 31.8153 65.4189 31.4457C65.4189 31.1025 65.4723 30.7856 65.6056 30.5216C65.739 30.2576 65.9257 30.0464 66.139 29.9143C66.379 29.7823 66.6457 29.7031 66.9391 29.7031C67.2325 29.7031 67.5258 29.7823 67.7392 29.9143C67.9792 30.0464 68.1392 30.2576 68.2726 30.5216C68.4059 30.7856 68.4593 31.1025 68.4593 31.4457C68.4593 31.7889 68.4059 32.1058 68.2726 32.3698C68.1392 32.6338 67.9525 32.845 67.7392 32.9771C67.4992 33.1091 67.2325 33.1883 66.9391 33.1883ZM66.9391 32.7394C67.1791 32.7394 67.3658 32.6866 67.5258 32.5546C67.6858 32.449 67.7925 32.2906 67.8725 32.0794C67.9525 31.8945 67.9792 31.6833 67.9792 31.4457C67.9792 31.2081 67.9525 31.0233 67.8725 30.812C67.7925 30.6272 67.6858 30.4688 67.5258 30.3368C67.3658 30.2048 67.1791 30.152 66.9391 30.152C66.6991 30.152 66.5124 30.2048 66.3524 30.3368C66.1924 30.4688 66.0857 30.6008 66.0057 30.812C65.9257 31.0233 65.899 31.2081 65.899 31.4457C65.899 31.6833 65.9257 31.8681 66.0057 32.0794C66.0857 32.2642 66.1924 32.4226 66.3524 32.5546C66.5124 32.6602 66.6991 32.7394 66.9391 32.7394Z" fill="white"/>
<path d="M70.6461 33.1883C70.3261 33.1883 70.0594 33.1091 69.846 32.9771C69.606 32.845 69.446 32.6338 69.3127 32.3698C69.1793 32.1058 69.126 31.8153 69.126 31.4457C69.126 31.1025 69.1793 30.7856 69.3127 30.5216C69.446 30.2576 69.6327 30.0464 69.846 29.9143C70.0861 29.7823 70.3528 29.7031 70.6461 29.7031C70.9662 29.7031 71.2329 29.7823 71.4462 29.9143C71.6862 30.0464 71.8463 30.2576 71.9796 30.5216C72.113 30.7856 72.1663 31.1025 72.1663 31.4457C72.1663 31.7889 72.113 32.1058 71.9796 32.3698C71.8463 32.6338 71.6596 32.845 71.4462 32.9771C71.2329 33.1091 70.9662 33.1883 70.6461 33.1883ZM70.6461 32.7394C70.8862 32.7394 71.0728 32.6866 71.2329 32.5546C71.3929 32.449 71.4996 32.2906 71.5796 32.0794C71.6596 31.8945 71.6862 31.6833 71.6862 31.4457C71.6862 31.2081 71.6596 31.0233 71.5796 30.812C71.4996 30.6272 71.3929 30.4688 71.2329 30.3368C71.0728 30.2048 70.8862 30.152 70.6461 30.152C70.4061 30.152 70.2194 30.2048 70.0594 30.3368C69.8994 30.4688 69.7927 30.6008 69.7127 30.812C69.6327 31.0233 69.606 31.2081 69.606 31.4457C69.606 31.6833 69.6327 31.8681 69.7127 32.0794C69.7927 32.2642 69.8994 32.4226 70.0594 32.5546C70.2194 32.6602 70.4061 32.7394 70.6461 32.7394Z" fill="white"/>
<path d="M74.4867 29.756V30.2048H72.7266V29.756H74.4867ZM73.2333 28.9375H73.7667V32.1586C73.7667 32.317 73.7933 32.4226 73.82 32.4755C73.8733 32.5547 73.9267 32.6075 73.98 32.6075C74.06 32.6339 74.1134 32.6339 74.1934 32.6339C74.2467 32.6339 74.3001 32.6339 74.3267 32.6339C74.3534 32.6339 74.3801 32.6339 74.4067 32.6075L74.5134 33.0827C74.4867 33.1091 74.4334 33.1091 74.3534 33.1355C74.3001 33.1619 74.22 33.1619 74.1134 33.1619C73.9534 33.1619 73.82 33.1355 73.6867 33.0563C73.5533 33.0035 73.42 32.8979 73.34 32.7659C73.2599 32.6339 73.2066 32.4755 73.2066 32.2906V28.9375H73.2333Z" fill="white"/>
<path d="M75.8469 31.1019V33.1349H75.3135V28.6465H75.8469V30.3099H75.9002C75.9802 30.125 76.0869 29.993 76.2736 29.8874C76.4336 29.7818 76.6469 29.729 76.9136 29.729C77.1537 29.729 77.3404 29.7818 77.527 29.861C77.7137 29.9402 77.8471 30.0986 77.9271 30.2834C78.0338 30.4683 78.0604 30.7059 78.0604 30.9963V33.1349H77.527V31.0227C77.527 30.7587 77.447 30.5475 77.3137 30.3891C77.1803 30.2306 76.9937 30.1778 76.727 30.1778C76.5669 30.1778 76.4069 30.2042 76.2736 30.2834C76.1402 30.3627 76.0336 30.4683 75.9535 30.6003C75.9002 30.7323 75.8469 30.8907 75.8469 31.1019Z" fill="white"/>
<path d="M81.5548 33.109L80.5146 29.7295H81.0747L81.8215 32.317H81.8481L82.5682 29.7295H83.1283L83.8483 32.2905H83.875L84.6217 29.7295H85.1818L84.1417 33.109H83.635L82.8882 30.5216H82.8349L82.0881 33.109H81.5548Z" fill="white"/>
<path d="M86.1146 29.2011C86.0079 29.2011 85.9279 29.1747 85.8479 29.0955C85.7679 29.0163 85.7412 28.9371 85.7412 28.8579C85.7412 28.7523 85.7679 28.6731 85.8479 28.6203C85.9279 28.5411 86.0079 28.5146 86.1146 28.5146C86.2213 28.5146 86.3013 28.5411 86.3813 28.6203C86.4613 28.6995 86.488 28.7787 86.488 28.8579C86.488 28.9635 86.4613 29.0427 86.3813 29.0955C86.3013 29.1483 86.2213 29.2011 86.1146 29.2011ZM85.8479 33.1087V29.7292H86.3813V33.1087H85.8479Z" fill="white"/>
<path d="M88.808 29.756V30.2048H87.0479V29.756H88.808ZM87.5546 28.9375H88.088V32.1586C88.088 32.317 88.1146 32.4226 88.1413 32.4755C88.1946 32.5547 88.248 32.6075 88.3013 32.6075C88.3813 32.6339 88.4347 32.6339 88.5147 32.6339C88.568 32.6339 88.6214 32.6339 88.648 32.6339C88.6747 32.6339 88.7014 32.6339 88.728 32.6075L88.8347 33.0827C88.808 33.1091 88.7547 33.1091 88.6747 33.1355C88.6214 33.1619 88.5413 33.1619 88.4347 33.1619C88.2747 33.1619 88.1413 33.1355 88.008 33.0563C87.8746 33.0035 87.7413 32.8979 87.6613 32.7659C87.5812 32.6339 87.5279 32.4755 87.5279 32.2906V28.9375H87.5546Z" fill="white"/>
<path d="M90.1955 31.1019V33.1349H89.6621V28.6465H90.1955V30.3099H90.2488C90.3288 30.125 90.4355 29.993 90.6222 29.8874C90.8089 29.7818 90.9956 29.729 91.2623 29.729C91.5023 29.729 91.689 29.7818 91.8757 29.861C92.0624 29.9402 92.1957 30.0986 92.2757 30.2834C92.3824 30.4683 92.4091 30.7059 92.4091 30.9963V33.1349H91.8757V31.0227C91.8757 30.7587 91.7957 30.5475 91.6623 30.3891C91.529 30.2306 91.3423 30.1778 91.0756 30.1778C90.9156 30.1778 90.7556 30.2042 90.6222 30.2834C90.4889 30.3627 90.3822 30.4683 90.3022 30.6003C90.2488 30.7323 90.1955 30.8907 90.1955 31.1019Z" fill="white"/>
<path d="M96.5156 33.1882C96.1955 33.1882 95.9288 33.109 95.6888 32.977C95.4488 32.8186 95.2888 32.6337 95.1554 32.3697C95.0221 32.1057 94.9688 31.8153 94.9688 31.472C94.9688 31.1288 95.0221 30.8384 95.1554 30.5743C95.2888 30.3103 95.4488 30.0991 95.6888 29.9671C95.9288 29.8087 96.1955 29.7559 96.4889 29.7559C96.7289 29.7559 96.9423 29.8087 97.129 29.8879C97.3157 29.9671 97.4757 30.0991 97.609 30.2575C97.7424 30.4159 97.7957 30.6007 97.849 30.812H97.3157C97.2623 30.6535 97.1823 30.5215 97.049 30.3895C96.9156 30.2575 96.7289 30.2047 96.4889 30.2047C96.2755 30.2047 96.1155 30.2575 95.9555 30.3631C95.7955 30.4687 95.6888 30.6271 95.6088 30.812C95.5288 30.9968 95.4755 31.2344 95.4755 31.472C95.4755 31.7361 95.5288 31.9473 95.6088 32.1585C95.6888 32.3433 95.8222 32.5017 95.9555 32.6073C96.1155 32.713 96.3022 32.7658 96.4889 32.7658C96.6223 32.7658 96.7556 32.7394 96.8623 32.6866C96.969 32.6337 97.0756 32.5809 97.1556 32.4753C97.2356 32.3961 97.289 32.2905 97.3157 32.1585H97.849C97.8224 32.3697 97.7424 32.5281 97.6357 32.6866C97.529 32.845 97.369 32.977 97.1823 33.0562C96.969 33.1354 96.7556 33.1882 96.5156 33.1882Z" fill="white"/>
<path d="M99.61 33.1883C99.3966 33.1883 99.2099 33.1355 99.0232 33.0563C98.8366 32.9771 98.7032 32.8451 98.5965 32.7131C98.4899 32.5547 98.4365 32.3699 98.4365 32.1586C98.4365 31.9738 98.4632 31.8154 98.5432 31.6834C98.6232 31.5514 98.7299 31.4722 98.8632 31.393C98.9966 31.3138 99.1299 31.261 99.2899 31.2345C99.45 31.2081 99.61 31.1817 99.77 31.1553C99.9834 31.1289 100.143 31.1025 100.277 31.1025C100.41 31.0761 100.49 31.0761 100.57 31.0233C100.623 30.9969 100.65 30.9441 100.65 30.8385V30.8121C100.65 30.6009 100.597 30.4161 100.463 30.3105C100.357 30.1784 100.17 30.1256 99.93 30.1256C99.69 30.1256 99.4766 30.1784 99.3433 30.2841C99.2099 30.3897 99.1033 30.4953 99.0499 30.6273L98.5432 30.4425C98.6232 30.2312 98.7566 30.0728 98.8899 29.9672C99.0499 29.8616 99.2099 29.7824 99.37 29.7296C99.5566 29.6768 99.7167 29.6504 99.9033 29.6504C100.01 29.6504 100.143 29.6504 100.277 29.6768C100.41 29.7032 100.57 29.756 100.703 29.8352C100.837 29.9144 100.943 30.0464 101.05 30.2048C101.13 30.3633 101.183 30.5745 101.183 30.8385V33.0563H100.65V32.6075H100.623C100.597 32.6867 100.517 32.7659 100.437 32.8451C100.357 32.9243 100.25 33.0035 100.117 33.0563C99.9833 33.1619 99.7967 33.1883 99.61 33.1883ZM99.69 32.7395C99.9033 32.7395 100.063 32.6867 100.223 32.6075C100.357 32.5283 100.463 32.4227 100.543 32.2907C100.623 32.1586 100.65 32.0266 100.65 31.8946V31.4194C100.623 31.4458 100.57 31.4722 100.517 31.4986C100.437 31.525 100.357 31.525 100.25 31.5514C100.143 31.5778 100.063 31.5778 99.9567 31.5778C99.8767 31.5778 99.7967 31.6042 99.7433 31.6042C99.61 31.6306 99.4766 31.657 99.37 31.6834C99.2633 31.7098 99.1566 31.789 99.0766 31.8682C98.9966 31.9474 98.9699 32.053 98.9699 32.185C98.9699 32.3699 99.0499 32.5019 99.1833 32.5811C99.3166 32.6867 99.4766 32.7395 99.69 32.7395Z" fill="white"/>
<path d="M102.116 33.1091V29.7296H102.623V30.2312H102.65C102.703 30.0728 102.836 29.9408 102.996 29.8352C103.156 29.7296 103.343 29.6768 103.556 29.6768C103.583 29.6768 103.636 29.6768 103.69 29.6768C103.743 29.6768 103.796 29.6768 103.823 29.6768V30.2048C103.796 30.2048 103.77 30.2048 103.69 30.1784C103.636 30.1784 103.556 30.152 103.503 30.152C103.343 30.152 103.183 30.1784 103.05 30.2576C102.916 30.3368 102.81 30.416 102.756 30.548C102.676 30.6801 102.65 30.8121 102.65 30.9441V33.0827H102.116V33.1091Z" fill="white"/>
<path d="M105.77 33.1882C105.45 33.1882 105.157 33.109 104.917 32.977C104.677 32.845 104.49 32.6338 104.357 32.3698C104.223 32.1057 104.17 31.8153 104.17 31.4721C104.17 31.1288 104.223 30.812 104.357 30.548C104.49 30.2839 104.65 30.0727 104.89 29.9407C105.13 29.7823 105.397 29.7295 105.69 29.7295C105.877 29.7295 106.037 29.7559 106.223 29.8087C106.383 29.8615 106.544 29.9671 106.704 30.0991C106.837 30.2311 106.97 30.416 107.05 30.6272C107.13 30.8384 107.184 31.1024 107.184 31.4193V31.6305H104.57V31.1552H106.65C106.65 30.9704 106.624 30.7856 106.544 30.6536C106.463 30.4952 106.357 30.3896 106.223 30.3104C106.09 30.2311 105.93 30.1783 105.743 30.1783C105.53 30.1783 105.343 30.2311 105.21 30.3368C105.05 30.4424 104.943 30.5744 104.863 30.7328C104.783 30.8912 104.73 31.076 104.73 31.2608V31.5513C104.73 31.8153 104.783 32.0265 104.863 32.1849C104.943 32.3698 105.077 32.5018 105.237 32.581C105.397 32.6602 105.583 32.713 105.797 32.713C105.93 32.713 106.063 32.6866 106.17 32.6602C106.277 32.6338 106.383 32.5546 106.463 32.4754C106.544 32.3962 106.597 32.2905 106.65 32.1849L107.157 32.317C107.104 32.4754 107.024 32.6338 106.89 32.7658C106.757 32.8978 106.597 33.0034 106.437 33.0562C106.223 33.1618 106.01 33.1882 105.77 33.1882Z" fill="white"/>
<path d="M20.4551 39.1023C9.78732 39.1023 1.06641 30.4951 1.06641 19.9076C1.06641 9.32015 9.78732 0.712891 20.4551 0.712891C31.1229 0.712891 39.8438 9.32015 39.8438 19.9076C39.8438 30.4951 31.1496 39.1023 20.4551 39.1023ZM20.4551 1.21454C10.054 1.21454 1.5998 9.61058 1.5998 19.9076C1.5998 30.2046 10.0807 38.6007 20.4818 38.6007C30.8829 38.6007 39.3638 30.2046 39.3638 19.9076C39.3371 9.61058 30.8829 1.21454 20.4551 1.21454Z" fill="white"/>
<path d="M14.4815 28.8584C14.1081 28.8584 13.7881 29.1752 13.7881 29.5449C13.7881 29.9145 14.1081 30.2313 14.4815 30.2313C14.8549 30.2313 15.1749 29.9145 15.1749 29.5449C15.1749 29.1488 14.8549 28.8584 14.4815 28.8584ZM14.4815 29.8089C14.3481 29.8089 14.2148 29.7033 14.2148 29.5449C14.2148 29.4129 14.3215 29.2808 14.4815 29.2808C14.6148 29.2808 14.7482 29.3865 14.7482 29.5449C14.7215 29.6769 14.6148 29.8089 14.4815 29.8089Z" fill="white"/>
<path d="M16.8545 28.8584C16.4812 28.8584 16.1611 29.1752 16.1611 29.5449C16.1611 29.9145 16.4812 30.2313 16.8545 30.2313C17.2279 30.2313 17.5479 29.9145 17.5479 29.5449C17.5479 29.1488 17.2546 28.8584 16.8545 28.8584ZM16.8545 29.8089C16.7212 29.8089 16.5878 29.7033 16.5878 29.5449C16.5878 29.4129 16.6945 29.2808 16.8545 29.2808C16.9879 29.2808 17.1212 29.3865 17.1212 29.5449C17.1212 29.6769 17.0146 29.8089 16.8545 29.8089Z" fill="white"/>
<path d="M20.8815 13.1226C21.2549 12.4097 21.9749 11.38 23.2017 10.6143C23.8951 10.1655 24.6952 9.84867 25.522 9.69026C25.6287 9.66385 25.7087 9.55824 25.682 9.42623C25.6553 9.32062 25.5486 9.24141 25.4153 9.26781C24.5352 9.42623 23.7085 9.76946 22.9617 10.2447C21.6549 11.0632 20.9082 12.1457 20.5081 12.9114C20.4548 13.017 20.4814 13.149 20.5881 13.2018C20.6148 13.2282 20.6681 13.2282 20.6948 13.2282C20.7748 13.2282 20.8281 13.2018 20.8815 13.1226Z" fill="white"/>
<path d="M16.2415 16.8445C15.3348 16.3693 14.4547 16.7917 14.3747 16.8445C14.268 16.8974 14.2147 17.0294 14.268 17.135C14.3213 17.2406 14.4547 17.2934 14.5614 17.2406C14.6147 17.2142 14.8281 17.1086 15.1481 17.0822C14.8814 17.5574 14.9081 18.1647 15.2548 18.5871C15.5215 18.9568 15.9482 19.1416 16.3749 19.1416C16.6682 19.1416 16.9616 19.0624 17.2283 18.8776C17.2816 18.8511 17.3083 18.7719 17.3083 18.7191C17.335 17.9271 16.9083 17.1878 16.2415 16.8445ZM15.6015 18.3231C15.3348 17.9535 15.3614 17.4254 15.6548 17.0822C15.7882 17.1086 15.9215 17.1614 16.0282 17.2142C16.5349 17.4782 16.8549 17.9799 16.8549 18.5607C16.4549 18.7983 15.8948 18.6927 15.6015 18.3231Z" fill="white"/>
<path d="M31.5761 25.8222C30.6693 24.4757 29.5225 23.4196 28.189 22.7331C27.549 22.3898 26.8289 22.1522 26.1088 21.9674C25.3087 21.7826 24.6153 21.2809 24.242 20.5681C25.0687 19.0895 25.3621 17.5846 24.962 16.238C24.7487 15.4988 24.322 14.8123 23.6819 14.205C24.4286 13.7298 25.4154 12.9377 26.1355 11.6704C26.9622 10.271 27.1223 8.9245 27.1223 8.02681C27.1223 7.9212 27.0423 7.84199 26.9622 7.81559C26.4289 7.70998 23.6552 7.23473 21.2816 9.03011C20.0015 10.007 19.3348 11.2479 19.0147 12.172C18.6947 11.2479 18.0546 10.007 16.7478 9.03011C14.3743 7.20833 11.6006 7.68358 11.0672 7.81559C10.9606 7.84199 10.9072 7.9212 10.9072 8.02681C10.9072 8.9245 11.0672 10.271 11.894 11.6704C12.6407 12.9377 13.6008 13.7298 14.3476 14.205C13.7075 14.8123 13.2808 15.4988 13.0675 16.238C12.5341 18.0598 13.2541 20.2248 14.961 22.2314V25.0301C14.8276 24.8717 14.6676 24.7397 14.4809 24.6077C13.1741 23.6572 11.734 23.8684 11.3073 23.9476C11.2006 23.974 11.1473 24.0532 11.1206 24.1588C11.1206 24.6341 11.2273 25.3733 11.6806 26.139C12.054 26.7727 12.5341 27.1687 12.9341 27.4328C12.6141 27.7496 12.4274 28.0928 12.294 28.4625C11.8673 29.8354 12.8008 31.578 14.6943 32.9245C14.6943 33.0565 14.6943 33.1885 14.721 33.3205C14.7743 33.6902 14.881 33.9806 15.041 34.2446V38.0466C15.1477 38.073 15.281 38.0994 15.3877 38.1522V34.7463C15.441 34.7991 15.4677 34.8519 15.521 34.8783C15.5744 34.9311 15.6277 34.9311 15.6811 34.9311C15.7344 34.9311 15.7877 34.9047 15.8411 34.8783C15.9211 34.7991 15.9211 34.6671 15.8411 34.5615C15.6277 34.3502 15.281 33.9278 15.1743 33.2677C15.0943 32.7661 15.2277 32.3436 15.3344 32.106H19.2548C19.3881 32.106 19.4681 32.0004 19.4681 31.8948C19.4681 31.7628 19.3614 31.6836 19.2548 31.6836H17.9746C18.9081 30.6011 19.2814 29.4658 18.9614 28.4889C18.8547 28.1192 18.6414 27.776 18.3213 27.4592C18.7214 27.1951 19.2014 26.7727 19.5748 26.1654C19.6548 26.0334 19.7348 25.875 19.7882 25.743C20.0815 27.1687 20.9349 28.4361 22.2417 29.2281C22.4551 29.3601 22.6685 29.5186 22.8818 29.7034C24.2686 30.8651 24.8287 32.37 25.042 33.479C25.0687 33.611 25.1487 34.139 25.1754 34.4823C25.1754 34.5087 25.1754 34.5615 25.1754 34.5879C25.1754 34.6407 25.1754 34.6935 25.1754 34.7463C25.1754 34.7463 25.1754 34.7463 25.1754 34.7727C25.2287 35.644 25.2821 37.3337 25.1754 38.3106C25.3621 38.2578 25.5221 38.205 25.7088 38.1786C25.6821 37.1225 25.6288 34.6671 25.5754 34.2446C25.4688 33.1357 25.0154 30.9707 23.1485 29.413C22.9352 29.2281 22.6951 29.0697 22.4551 28.9113C21.015 28.0136 20.1349 26.4823 20.1082 24.8189C20.1615 24.7925 20.2149 24.7661 20.2415 24.7133C21.8417 23.6044 23.0685 22.3106 23.8953 21.0169C24.3486 21.7298 25.0687 22.2314 25.9221 22.4163C26.6155 22.5747 27.2823 22.8123 27.8957 23.1291C32.4828 25.5054 33.3362 31.4724 33.4696 33.7958C33.6029 33.6638 33.7363 33.5318 33.8696 33.3998C33.7896 32.4493 33.6029 31.1027 33.2029 29.677C32.8829 28.1984 32.3228 26.9047 31.5761 25.8222ZM19.2548 25.9542C18.8547 26.6407 18.2947 27.0367 17.8946 27.2479C17.8413 27.2743 17.7879 27.3535 17.7879 27.4064C17.7879 27.4856 17.8146 27.5384 17.868 27.5912C18.2413 27.908 18.4814 28.2512 18.588 28.6209C18.8547 29.5186 18.428 30.6539 17.4146 31.6836H15.201C15.121 31.6836 15.041 31.7364 15.0143 31.8156C14.9343 31.9476 14.8543 32.1852 14.801 32.4757C13.2008 31.2611 12.4007 29.7826 12.7474 28.6473C12.8541 28.2776 13.0941 27.9344 13.4675 27.6176C13.5208 27.5648 13.5475 27.512 13.5475 27.4328C13.5475 27.3535 13.4942 27.3007 13.4408 27.2743C13.0408 27.0631 12.5074 26.6671 12.0807 25.9806C11.734 25.3998 11.6273 24.8189 11.6006 24.3965C12.0807 24.3172 13.2275 24.2644 14.2409 25.0037C15.0677 25.611 15.361 26.4295 15.4677 26.8783C15.4944 26.9839 15.5744 27.0367 15.6811 27.0367C15.7877 27.0367 15.8677 26.9575 15.8944 26.8783C16.0011 26.4559 16.2945 25.6374 17.1212 25.0037C17.2812 24.8717 17.4679 24.7661 17.6546 24.6869C17.6813 24.6869 17.6813 24.7133 17.7079 24.7133C18.108 25.0037 18.5614 25.1357 19.0414 25.1357C19.2548 25.1357 19.4681 25.1093 19.6815 25.0565C19.5481 25.3469 19.4415 25.6638 19.2548 25.9542ZM15.4144 25.611V22.7595C15.9478 23.3139 16.5612 23.8684 17.2546 24.3965C17.1212 24.4757 16.9879 24.5549 16.8545 24.6605C16.2411 25.1093 15.8944 25.6638 15.6811 26.139C15.6011 25.9542 15.521 25.7958 15.4144 25.611ZM20.0815 24.3436C19.4415 24.7925 18.588 24.7925 17.948 24.3436C17.8946 24.2908 17.8413 24.2644 17.7879 24.2116C17.9746 23.71 18.4814 23.3667 19.0147 23.3667C19.5748 23.3667 20.0549 23.71 20.2415 24.2116C20.1882 24.2644 20.1349 24.3172 20.0815 24.3436ZM23.8686 20.3304C23.1485 21.6242 22.0284 22.8651 20.5882 23.974C20.2949 23.3667 19.6815 22.9707 18.9881 22.9707C18.2947 22.9707 17.6813 23.3667 17.3879 23.974C15.9744 22.8651 14.8543 21.6242 14.1342 20.3304C13.3608 18.9311 13.1208 17.5582 13.4675 16.3964C13.6809 15.6572 14.1342 14.9707 14.8276 14.3634C14.881 14.3106 14.9076 14.2578 14.9076 14.1786C14.9076 14.0994 14.8543 14.0466 14.801 14.0202C14.0542 13.5978 13.0141 12.8321 12.2407 11.512C11.5206 10.2974 11.3339 9.08292 11.3073 8.26444C12.0807 8.13242 14.4276 7.8948 16.4545 9.42615C18.028 10.6407 18.588 12.2248 18.7747 13.0697C18.8014 13.1753 18.8814 13.2281 18.9881 13.2281C19.0948 13.2281 19.1748 13.1489 19.2014 13.0697C19.3881 12.2248 19.9482 10.6143 21.5217 9.42615C23.5486 7.8684 25.8955 8.10602 26.6689 8.26444C26.6422 9.10932 26.4555 10.2974 25.7354 11.512C24.962 12.8321 23.9219 13.5978 23.1752 14.0202C23.1218 14.0466 23.0685 14.1258 23.0685 14.1786C23.0685 14.2578 23.0952 14.3106 23.1485 14.3634C23.8419 14.9707 24.2953 15.6572 24.5087 16.3964C24.882 17.5582 24.6687 18.9047 23.8686 20.3304Z" fill="white"/>
<path d="M23.6555 16.8445C23.5488 16.7917 22.6688 16.3693 21.7887 16.8445C21.1219 17.1878 20.6952 17.9271 20.7219 18.6927C20.7219 18.7719 20.7486 18.8247 20.8019 18.8511C21.0686 19.036 21.362 19.1152 21.6553 19.1152C22.082 19.1152 22.5087 18.9304 22.7754 18.5607C23.1221 18.1119 23.1488 17.531 22.8821 17.0558C23.2021 17.0822 23.4155 17.1878 23.4688 17.2142C23.5755 17.267 23.7089 17.2142 23.7622 17.1086C23.8155 17.0294 23.7622 16.8974 23.6555 16.8445ZM22.4287 18.3231C22.1354 18.7191 21.5753 18.7983 21.1486 18.5607C21.1753 18.0063 21.4953 17.4782 21.9754 17.2142C22.1087 17.135 22.242 17.1086 22.3487 17.0822C22.6688 17.4254 22.6954 17.9535 22.4287 18.3231Z" fill="white"/>
<path d="M15.0682 10.2447C14.3215 9.76946 13.4947 9.45263 12.6146 9.26781C12.508 9.24141 12.3746 9.32062 12.3479 9.42623C12.3213 9.53184 12.4013 9.66385 12.508 9.69026C13.3347 9.84867 14.1081 10.1655 14.8282 10.6143C16.055 11.38 16.7751 12.4097 17.1484 13.1226C17.1751 13.2018 17.2551 13.2282 17.3351 13.2282C17.3618 13.2282 17.4151 13.2282 17.4418 13.2018C17.5485 13.149 17.6018 13.017 17.5218 12.9114C17.1218 12.1457 16.375 11.0632 15.0682 10.2447Z" fill="white"/>
</svg>
