<svg width="24" height="24" viewBox="0 0 24 24" fill="none" xmlns="http://www.w3.org/2000/svg">
<path fill-rule="evenodd" clip-rule="evenodd" d="M12.045 23.9957H11.9493C7.18558 23.9957 4.3996 23.516 2.45898 21.6139C0.461237 19.5762 0 16.8101 0 12.065V11.9307C0 7.18558 0.461237 4.3996 2.45898 2.38186C4.41816 0.4798 7.18558 0 11.9507 0H12.0464C16.7916 0 19.5775 0.4798 21.5354 2.38186C23.533 4.41959 23.9943 7.18558 23.9943 11.9307V12.065C23.9943 16.8116 23.533 19.5962 21.5354 21.6139C19.5761 23.516 16.8102 23.9957 12.045 23.9957ZM20.9722 11.6445C21.0636 11.6488 21.1379 11.7244 21.1379 11.8158H21.1364V12.1984C21.1364 12.2913 21.0622 12.3669 20.9707 12.3698C17.6911 12.494 15.6966 12.9109 14.2988 14.3087C12.9023 15.7051 12.4854 17.6969 12.3598 20.9707C12.3555 21.0621 12.2798 21.1364 12.1884 21.1364H11.8044C11.7116 21.1364 11.6359 21.0621 11.633 20.9707C11.5074 17.6969 11.0905 15.7051 9.6941 14.3087C8.29772 12.9123 6.30168 12.494 3.02206 12.3698C2.93068 12.3655 2.85645 12.2898 2.85645 12.1984V11.8158C2.85645 11.723 2.93068 11.6473 3.02206 11.6445C6.30168 11.5202 8.29631 11.1033 9.6941 9.70553C11.0933 8.3063 11.5102 6.30739 11.6345 3.02206C11.6387 2.93068 11.7144 2.85645 11.8058 2.85645H12.1884C12.2812 2.85645 12.3569 2.93068 12.3598 3.02206C12.484 6.30882 12.9009 8.3063 14.3002 9.70553C15.6966 11.1019 17.6925 11.5202 20.9722 11.6445Z" fill="#202022"/>
</svg>
