<svg width="20" height="20" viewBox="0 0 20 20" fill="none" xmlns="http://www.w3.org/2000/svg">
<path fill-rule="evenodd" clip-rule="evenodd" d="M9.53447 2.55773C5.68132 2.55773 2.55773 5.68132 2.55773 9.53447C2.55773 13.3876 5.68132 16.5112 9.53447 16.5112C11.4071 16.5112 13.1075 15.7734 14.3606 14.5727C14.3896 14.5325 14.4221 14.4942 14.4582 14.4581C14.4943 14.422 14.5326 14.3895 14.5727 14.3606C15.7735 13.1074 16.5112 11.4071 16.5112 9.53447C16.5112 5.68132 13.3876 2.55773 9.53447 2.55773ZM16.4066 15.091C17.6355 13.573 18.3717 11.6397 18.3717 9.53447C18.3717 4.65382 14.4151 0.697266 9.53447 0.697266C4.65382 0.697266 0.697266 4.65382 0.697266 9.53447C0.697266 14.4151 4.65382 18.3717 9.53447 18.3717C11.6397 18.3717 13.5731 17.6355 15.0911 16.4066L17.7139 19.0294C18.0772 19.3927 18.6662 19.3927 19.0294 19.0295C19.3927 18.6662 19.3927 18.0772 19.0295 17.7139L16.4066 15.091Z" fill="#292824"/>
</svg>
