<svg width="54" height="54" viewBox="0 0 54 54" fill="none" xmlns="http://www.w3.org/2000/svg">
<path fill-rule="evenodd" clip-rule="evenodd" d="M8.37949 0.818359C9.12741 0.818359 9.73372 1.42467 9.73372 2.17259C9.73372 4.85264 11.9063 7.02526 14.5864 7.02526C15.3343 7.02526 15.9406 7.63157 15.9406 8.37949C15.9406 9.12741 15.3343 9.73372 14.5864 9.73372C11.9063 9.73372 9.73372 11.9063 9.73372 14.5864C9.73372 15.3343 9.12741 15.9406 8.37949 15.9406C7.63157 15.9406 7.02526 15.3343 7.02526 14.5864C7.02526 11.9063 4.85264 9.73372 2.17259 9.73372C1.42467 9.73372 0.818359 9.12741 0.818359 8.37949C0.818359 7.63157 1.42467 7.02526 2.17259 7.02526C4.85264 7.02526 7.02526 4.85264 7.02526 2.17259C7.02526 1.42467 7.63157 0.818359 8.37949 0.818359ZM29.4829 3.30112C30.0433 3.30112 30.5457 3.64622 30.7469 4.16921L35.0524 15.3636C35.7775 17.2488 36.0645 17.9673 36.4868 18.5613C36.8816 19.1165 37.3666 19.6015 37.9218 19.9963C38.5158 20.4186 39.2343 20.7056 41.1195 21.4307L52.3139 25.7362C52.8369 25.9374 53.182 26.4398 53.182 27.0002C53.182 27.5605 52.8369 28.063 52.3139 28.2641L41.1195 32.5697C39.2343 33.2948 38.5158 33.5817 37.9218 34.004C37.3666 34.3988 36.8816 34.8839 36.4868 35.4391C36.0645 36.033 35.7775 36.7515 35.0525 38.6367L30.7469 49.8311C30.5458 50.3541 30.0433 50.6992 29.4829 50.6992C28.9226 50.6992 28.4201 50.3541 28.219 49.8311L23.9134 38.6367C23.1884 36.7515 22.9014 36.033 22.4791 35.4391C22.0843 34.8839 21.5992 34.3988 21.044 34.004C20.4501 33.5817 19.7316 33.2948 17.8464 32.5697L6.65197 28.2641C6.12897 28.063 5.78388 27.5605 5.78388 27.0002C5.78388 26.4398 6.12897 25.9374 6.65197 25.7362L17.8464 21.4307C19.7316 20.7056 20.4501 20.4186 21.044 19.9963C21.5992 19.6015 22.0843 19.1165 22.4791 18.5613C22.9014 17.9673 23.1884 17.2488 23.9134 15.3636L28.219 4.16921C28.4201 3.64622 28.9226 3.30112 29.4829 3.30112ZM32.5245 16.3359C31.4533 13.5506 27.5126 13.5506 26.4414 16.3359C26.4192 16.3935 26.3973 16.4504 26.3757 16.5066C25.7387 18.1637 25.331 19.2242 24.6864 20.1308C24.1162 20.9328 23.4155 21.6334 22.6136 22.2036C21.707 22.8483 20.6465 23.2559 18.9894 23.8929C18.9332 23.9146 18.8763 23.9364 18.8187 23.9586C16.0334 25.0299 16.0334 28.9705 18.8187 30.0418C18.8763 30.0639 18.9332 30.0858 18.9894 30.1074C20.6465 30.7444 21.707 31.1521 22.6136 31.7967C23.4155 32.3669 24.1162 33.0676 24.6864 33.8695C25.331 34.7761 25.7387 35.8366 26.3757 37.4937C26.3973 37.5499 26.4192 37.6068 26.4414 37.6645C27.5126 40.4497 31.4533 40.4497 32.5245 37.6644C32.5467 37.6069 32.5685 37.55 32.5901 37.4938C33.2272 35.8367 33.6348 34.7761 34.2795 33.8695C34.8497 33.0676 35.5504 32.3669 36.3523 31.7967C37.2589 31.1521 38.3194 30.7444 39.9765 30.1074C40.0327 30.0858 40.0896 30.0639 40.1472 30.0418C42.9325 28.9705 42.9325 25.0299 40.1472 23.9586C40.0896 23.9364 40.0327 23.9146 39.9765 23.893C38.3194 23.256 37.2589 22.8483 36.3523 22.2036C35.5504 21.6334 34.8497 20.9328 34.2795 20.1308C33.6348 19.2242 33.2272 18.1637 32.5902 16.5066C32.5685 16.4504 32.5467 16.3935 32.5245 16.3359ZM8.37949 38.0597C9.12741 38.0597 9.73372 38.666 9.73372 39.414C9.73372 42.094 11.9063 44.2666 14.5864 44.2666C15.3343 44.2666 15.9406 44.8729 15.9406 45.6209C15.9406 46.3688 15.3343 46.9751 14.5864 46.9751C11.9063 46.9751 9.73372 49.1477 9.73372 51.8278C9.73372 52.5757 9.12741 53.182 8.37949 53.182C7.63157 53.182 7.02526 52.5757 7.02526 51.8278C7.02526 49.1477 4.85264 46.9751 2.17259 46.9751C1.42467 46.9751 0.818359 46.3688 0.818359 45.6209C0.818359 44.8729 1.42467 44.2666 2.17259 44.2666C4.85264 44.2666 7.02526 42.094 7.02526 39.414C7.02526 38.666 7.63157 38.0597 8.37949 38.0597Z" fill="url(#paint0_linear_4001_3299)"/>
<defs>
<linearGradient id="paint0_linear_4001_3299" x1="27.0982" y1="0.818359" x2="27.0982" y2="66.7093" gradientUnits="userSpaceOnUse">
<stop stop-color="white"/>
<stop offset="1" stop-color="#FFFDFD" stop-opacity="0.04"/>
</linearGradient>
</defs>
</svg>
