<svg width="24" height="24" viewBox="0 0 24 24" fill="none" xmlns="http://www.w3.org/2000/svg">
<path d="M11.9493 23.9957H12.045C16.8102 23.9957 19.5761 23.516 21.5354 21.6139C23.533 19.5962 23.9943 16.8116 23.9943 12.065V11.9307C23.9943 7.18558 23.533 4.41959 21.5354 2.38186C19.5775 0.4798 16.7916 0 12.0464 0H11.9507C7.18558 0 4.41816 0.4798 2.45898 2.38186C0.461237 4.3996 0 7.18558 0 11.9307V12.065C0 16.8101 0.461237 19.5762 2.45898 21.6139C4.3996 23.516 7.18558 23.9957 11.9493 23.9957Z" fill="#202022"/>
<path d="M21.1379 11.8158C21.1379 11.7244 21.0636 11.6488 20.9722 11.6445C17.6925 11.5202 15.6966 11.1019 14.3002 9.70553C12.9009 8.3063 12.484 6.30882 12.3598 3.02206C12.3569 2.93068 12.2812 2.85645 12.1884 2.85645H11.8058C11.7144 2.85645 11.6387 2.93068 11.6345 3.02206C11.5102 6.30739 11.0933 8.3063 9.6941 9.70553C8.29631 11.1033 6.30168 11.5202 3.02206 11.6445C2.93068 11.6473 2.85645 11.723 2.85645 11.8158V12.1984C2.85645 12.2898 2.93068 12.3655 3.02206 12.3698C6.30168 12.494 8.29772 12.9123 9.6941 14.3087C11.0905 15.7051 11.5074 17.6969 11.633 20.9707C11.6359 21.0621 11.7116 21.1364 11.8044 21.1364H12.1884C12.2798 21.1364 12.3555 21.0621 12.3598 20.9707C12.4854 17.6969 12.9023 15.7051 14.2988 14.3087C15.6966 12.9109 17.6911 12.494 20.9707 12.3698C21.0622 12.3669 21.1364 12.2913 21.1364 12.1984V11.8158H21.1379Z" fill="white"/>
</svg>
