<svg width="132" height="42" viewBox="0 0 132 42" fill="none" xmlns="http://www.w3.org/2000/svg">
<path d="M57.7666 10.9776C57.9606 10.7004 58.0438 10.5063 58.016 10.3954C57.9883 10.2845 57.9052 10.1459 57.7666 9.97958C57.628 9.81324 57.5725 9.67463 57.5725 9.59146V9.53602C57.5725 9.34196 57.7111 9.25879 58.016 9.25879H60.5385C60.8157 9.25879 60.9543 9.34196 60.9543 9.53602V9.59146C60.9543 9.70235 60.8711 9.84097 60.7048 9.95186C60.5385 10.0627 60.3167 10.2291 60.0396 10.3954C59.7624 10.5895 59.5129 10.7835 59.3466 10.9776L56.0757 14.2489L60.8989 22.0113C61.0652 22.2885 61.2592 22.5103 61.4532 22.6766C61.6473 22.8429 61.7859 22.9816 61.869 23.0647C61.9522 23.1479 62.0076 23.2588 62.0076 23.3697V23.4251C62.0076 23.6192 61.869 23.7024 61.5918 23.7024H57.9883C57.7111 23.7024 57.5725 23.6192 57.5725 23.4251V23.3697C57.5725 23.2865 57.6834 23.1202 57.9329 22.8707C58.1546 22.6212 58.2101 22.3994 58.0992 22.1499L54.3848 15.94L51.8346 18.4905V22.0113C51.8346 22.3162 51.9732 22.5934 52.2504 22.8152C52.5276 23.0647 52.6662 23.2311 52.6662 23.3697V23.4251C52.6662 23.6192 52.5276 23.7024 52.2227 23.7024H49.0349C48.7577 23.7024 48.6191 23.6192 48.6191 23.4251V23.3697C48.6191 23.2588 48.7577 23.0647 49.0072 22.8152C49.2567 22.5657 49.3953 22.2885 49.3953 22.0113V10.9499C49.3953 10.6449 49.2567 10.3954 49.0072 10.1459C48.7577 9.89641 48.6191 9.73008 48.6191 9.61918V9.56374C48.6191 9.36968 48.7577 9.28651 49.0349 9.28651H52.2227C52.4999 9.28651 52.6385 9.36968 52.6385 9.56374V9.61918C52.6385 9.73008 52.4999 9.92413 52.2227 10.1459C51.9455 10.3954 51.8069 10.6449 51.8069 10.9499V16.938L57.7666 10.9776Z" fill="black"/>
<path d="M66.8304 23.9239C65.4444 23.9239 64.2802 23.4526 63.3655 22.51C62.4507 21.5674 61.9795 20.3199 61.9795 18.7674C61.9795 17.3259 62.4507 16.1338 63.3932 15.1912C64.3356 14.2486 65.4999 13.7773 66.8581 13.7773C68.0778 13.7773 69.0202 14.0823 69.6855 14.6922C70.3508 15.3021 70.6834 15.9952 70.6834 16.7991C70.6834 17.4922 70.323 17.9635 69.6301 18.213L64.696 19.9595C64.9455 20.6526 65.3335 21.207 65.8602 21.5952C66.3869 21.9833 66.9967 22.1773 67.6897 22.1773C68.2995 22.1773 68.8262 22.0387 69.2974 21.7615C69.7409 21.4843 70.1013 21.1239 70.2953 20.708C70.4062 20.5417 70.5448 20.514 70.7111 20.5417C70.8774 20.5971 70.9606 20.708 70.9606 20.9021C70.8497 21.6229 70.4339 22.316 69.6855 22.9536C68.9648 23.5912 67.9946 23.9239 66.8304 23.9239ZM64.3634 17.8249C64.3634 18.2962 64.3911 18.712 64.4742 19.1278L67.856 17.6585C68.2164 17.4922 68.3827 17.215 68.3827 16.7991C68.3827 16.3001 68.1886 15.8011 67.8283 15.2744C67.4402 14.7476 66.9967 14.4981 66.4423 14.4981C65.8048 14.4981 65.3058 14.8031 64.9178 15.413C64.5297 16.0229 64.3634 16.8268 64.3634 17.8249Z" fill="black"/>
<path d="M79.7208 23.7302C79.4159 23.7302 79.2773 23.6193 79.2773 23.4252V23.3421C79.2773 23.2312 79.4159 23.0371 79.6654 22.8153C79.9148 22.5658 80.0257 22.3163 80.0257 22.0114L79.8317 18.0748C79.7485 15.8292 79.0278 14.7203 77.6973 14.7203C77.0597 14.7203 76.5331 14.9421 76.145 15.4134C75.7569 15.8847 75.5629 16.4946 75.5629 17.2431V22.0391C75.5629 22.3441 75.7015 22.5936 75.9787 22.8431C76.2559 23.0649 76.3945 23.2589 76.3945 23.3698V23.453C76.3945 23.647 76.2559 23.7579 75.951 23.7579H72.7909C72.5138 23.7579 72.3752 23.647 72.3752 23.453V23.3698C72.3752 23.2589 72.5138 23.0649 72.7909 22.8431C73.0681 22.6213 73.2067 22.3441 73.2067 22.0391V16.5777C73.2067 16.3282 73.1236 16.1064 72.985 15.9401C72.8187 15.7738 72.6801 15.6351 72.5138 15.552C72.3752 15.4411 72.292 15.3302 72.292 15.2193V15.1639C72.292 15.0252 72.4029 14.9144 72.6524 14.8035L74.6204 13.8609C74.8422 13.7777 75.0085 13.75 75.0917 13.8332C75.2025 13.9163 75.258 14.0272 75.258 14.2213V15.5243C75.5352 14.9698 75.951 14.5262 76.5054 14.2213C77.0597 13.9163 77.6696 13.75 78.3626 13.75C79.4159 13.75 80.3029 14.1104 81.0236 14.8312C81.7443 15.552 82.1601 16.6609 82.2433 18.1856L82.4928 22.0391C82.4928 22.3441 82.6313 22.5936 82.8808 22.8431C83.1303 23.0926 83.2412 23.2589 83.2412 23.3698V23.453C83.2412 23.647 83.0749 23.7579 82.7699 23.7579H79.7208V23.7302Z" fill="black"/>
<path d="M88.8125 21.9276C87.5097 21.9276 86.4286 21.5395 85.5693 20.7633C84.6823 19.987 84.2388 19.0445 84.2388 17.9078C84.2388 16.688 84.6823 15.6623 85.5416 14.886C86.4009 14.1098 87.5374 13.7217 88.9234 13.7217C89.2837 13.7217 89.8381 13.7494 90.6143 13.8326C91.3904 13.9157 92.1943 13.9435 93.0259 13.9435C93.3031 13.9435 93.5248 13.9712 93.6911 14.0266C93.8575 14.0821 93.9406 14.1375 93.9683 14.2207C93.9961 14.3039 93.9683 14.387 93.9129 14.4979C93.8575 14.6643 93.7466 14.7751 93.5803 14.8583C93.4139 14.9138 93.1922 14.9692 92.915 15.0247C92.6101 15.0801 92.4438 15.1078 92.3329 15.1355C92.721 15.4682 93.0259 15.8841 93.2476 16.3831C93.4971 16.8821 93.608 17.3534 93.608 17.8524C93.608 18.6563 93.3862 19.3771 92.9704 19.987C92.5546 20.6246 91.9725 21.0959 91.2241 21.4563C92.915 21.8445 93.7466 22.6484 93.7466 23.8959C93.7466 24.7831 93.2753 25.5039 92.3606 26.0306C91.4459 26.5573 90.2539 26.8346 88.8402 26.8346C87.3988 26.8346 86.2346 26.5296 85.403 25.9474C84.5714 25.3652 84.1279 24.6722 84.1279 23.8682C84.1279 23.591 84.2111 23.3692 84.3774 23.1751C84.5437 22.9811 84.7932 22.8979 85.0981 22.8979C85.3753 22.8979 85.5971 23.0088 85.7911 23.2306C85.9851 23.4524 86.1237 23.7019 86.2623 24.0068C86.4009 24.3118 86.5672 24.6167 86.7336 24.9217C86.9276 25.2266 87.2048 25.5039 87.5651 25.7256C87.9255 25.9474 88.369 26.0583 88.9234 26.0583C89.6718 26.0583 90.2539 25.8643 90.6697 25.4761C91.1132 25.088 91.335 24.589 91.335 23.9514C91.335 23.3692 91.1687 22.8979 90.8638 22.5098C90.5588 22.1217 90.1153 21.8999 89.5609 21.8722C89.2283 21.9276 88.9788 21.9276 88.8125 21.9276ZM86.595 16.9098C86.595 18.0742 86.8444 19.0445 87.3711 19.9039C87.8978 20.7355 88.5076 21.1514 89.2006 21.1514C89.8104 21.1514 90.3094 20.9296 90.6974 20.486C91.0578 20.0425 91.2518 19.4603 91.2518 18.7395C91.2518 17.5751 91.0024 16.6048 90.4757 15.7732C89.9767 14.9415 89.3115 14.5256 88.5353 14.5256C87.9255 14.5256 87.4543 14.7474 87.1216 15.191C86.7613 15.6346 86.595 16.189 86.595 16.9098Z" fill="black"/>
<path d="M103.476 23.8409C102.921 23.8409 102.533 23.7577 102.284 23.5914C102.034 23.425 101.896 23.0924 101.84 22.6211C101.286 23.4805 100.343 23.924 99.0128 23.924C97.8763 23.924 96.9615 23.6468 96.2408 23.1201C95.5479 22.5933 95.1875 21.8171 95.1875 20.8468C95.1875 19.8765 95.5201 19.128 96.2131 18.6013C96.9061 18.0745 97.7931 17.7973 98.8742 17.7973C99.8444 17.7973 100.648 18.0191 101.23 18.4904L101.203 18.0745C101.092 16.827 100.87 15.9122 100.537 15.3577C100.232 14.7755 99.7335 14.4983 99.0405 14.4983C98.6247 14.4983 98.2644 14.6369 97.9872 14.8864C97.71 15.1359 97.5159 15.4131 97.4051 15.7181C97.2942 16.023 97.1556 16.3003 96.9615 16.5498C96.7675 16.7993 96.518 16.9379 96.2408 16.9379C95.9359 16.9379 95.7142 16.8547 95.5201 16.6884C95.3261 16.5221 95.2429 16.3003 95.2429 15.9953C95.2429 15.3577 95.6033 14.8032 96.324 14.3597C97.0447 13.9161 97.9317 13.6943 99.0128 13.6943C100.288 13.6943 101.313 14.0825 102.117 14.831C102.894 15.5795 103.365 16.6329 103.503 17.9359L103.919 21.8448C103.947 22.1498 104.03 22.3716 104.141 22.5379C104.279 22.7042 104.39 22.8151 104.529 22.8428C104.668 22.8706 104.778 22.926 104.889 23.0092C105 23.0924 105.056 23.1755 105.056 23.2864C105.139 23.6745 104.584 23.8409 103.476 23.8409ZM97.5991 20.5696C97.5991 21.2904 97.7931 21.9003 98.1812 22.3993C98.5693 22.8983 99.0682 23.1478 99.6781 23.1478C100.232 23.1478 100.676 22.9537 101.036 22.5379C101.397 22.1221 101.535 21.6508 101.508 21.0963L101.424 20.4587C101.397 19.8765 101.203 19.4052 100.842 19.0726C100.482 18.7399 100.038 18.5735 99.5117 18.5735C98.9296 18.5735 98.4861 18.7676 98.1258 19.128C97.7931 19.4607 97.5991 19.9597 97.5991 20.5696Z" fill="black"/>
<path d="M106.636 23.7303C106.358 23.7303 106.22 23.6471 106.22 23.4531V23.3976C106.22 23.2867 106.358 23.0927 106.608 22.8709C106.857 22.6214 106.996 22.3719 106.996 22.0669V10.9778C106.996 10.6729 106.857 10.4234 106.608 10.1739C106.358 9.92435 106.22 9.75802 106.22 9.64713V9.59168C106.22 9.39762 106.358 9.31445 106.636 9.31445H111.237C113.094 9.31445 114.591 9.70257 115.7 10.4511C116.809 11.2273 117.391 12.3362 117.391 13.8333C117.391 14.6927 117.141 15.4966 116.615 16.2174C116.088 16.9382 115.339 17.4649 114.369 17.8253L117.252 22.0392C117.418 22.2887 117.612 22.4828 117.862 22.6491C118.111 22.8154 118.278 22.9541 118.416 23.0372C118.555 23.1204 118.61 23.2313 118.61 23.3699V23.4253C118.61 23.6194 118.472 23.7026 118.195 23.7026H114.646C114.369 23.7026 114.231 23.6194 114.231 23.4253V23.3699C114.231 23.259 114.314 23.1481 114.452 23.0095C114.591 22.8709 114.702 22.76 114.757 22.6491C114.813 22.5382 114.785 22.3442 114.646 22.0392L112.069 18.158H111.902L109.463 18.1857V22.0115C109.463 22.3164 109.601 22.5659 109.879 22.8154C110.156 23.0649 110.294 23.2313 110.294 23.3422V23.3976C110.294 23.5917 110.156 23.6749 109.851 23.6749H106.636V23.7303ZM109.435 15.9956C109.435 16.7719 109.768 17.16 110.433 17.16H111.57C112.567 17.16 113.371 16.8828 113.953 16.356C114.563 15.8293 114.84 15.0808 114.84 14.0828C114.84 12.8907 114.48 11.9481 113.732 11.2828C112.983 10.6174 112.096 10.2848 111.043 10.2848H110.017C109.601 10.2848 109.407 10.562 109.407 11.0887V15.9956H109.435Z" fill="black"/>
<path d="M123.767 23.9243C122.63 23.9243 121.715 23.5362 121.022 22.7877C120.329 22.0392 119.997 20.9302 119.997 19.4887V15.9679C119.997 15.6629 119.858 15.3857 119.609 15.1362C119.359 14.8867 119.221 14.7203 119.221 14.6095V14.554C119.221 14.36 119.332 14.2213 119.581 14.1936L121.715 13.8609C122.187 13.8055 122.408 13.8887 122.408 14.1659L122.381 19.7659C122.381 21.9283 123.046 23.0095 124.404 23.0095C125.014 23.0095 125.541 22.76 125.957 22.2609C126.372 21.7619 126.594 21.0966 126.594 20.2649V15.9679C126.594 15.6629 126.455 15.3857 126.206 15.1362C125.929 14.8867 125.818 14.7203 125.818 14.6095V14.554C125.818 14.36 125.929 14.2213 126.151 14.1936L128.34 13.8609C128.784 13.8055 129.006 13.8887 128.978 14.1659V21.8451C128.978 22.2055 129.033 22.455 129.144 22.6491C129.255 22.8154 129.366 22.9263 129.505 22.954C129.643 22.9817 129.754 23.0095 129.865 23.0649C129.976 23.1203 130.031 23.2312 130.031 23.3699C130.031 23.7025 129.532 23.8689 128.507 23.8689C127.925 23.8689 127.509 23.758 127.232 23.5362C126.954 23.3144 126.844 22.9263 126.844 22.3718C126.234 23.3976 125.208 23.9243 123.767 23.9243Z" fill="black"/>
<path d="M47.8984 30.5781V30.0791H51.4465V30.5781H49.9497V34.792H49.3676V30.5781H47.8984Z" fill="#878787"/>
<path d="M51.8623 34.7641V31.2156H52.389V31.7423H52.4167C52.4721 31.576 52.6107 31.4374 52.777 31.3265C52.9434 31.2156 53.1374 31.1602 53.3592 31.1602C53.3869 31.1602 53.4423 31.1602 53.4978 31.1602C53.5532 31.1602 53.6086 31.1602 53.6363 31.1602V31.7146C53.6086 31.7146 53.5809 31.7146 53.4978 31.6869C53.4146 31.6592 53.3592 31.6592 53.3037 31.6592C53.1374 31.6592 52.9711 31.6869 52.8325 31.7701C52.6939 31.8532 52.583 31.9364 52.5276 32.075C52.4444 32.2136 52.4167 32.3522 52.4167 32.4908V34.7364H51.8623V34.7641Z" fill="#878787"/>
<path d="M55.6602 34.8475C55.3276 34.8475 55.0227 34.7643 54.7732 34.6257C54.5237 34.4871 54.3297 34.2653 54.1911 33.9881C54.0525 33.7109 53.9971 33.4059 53.9971 33.0455C53.9971 32.6851 54.0525 32.3525 54.1911 32.0752C54.3297 31.798 54.496 31.5762 54.7455 31.4376C54.995 31.2713 55.2722 31.2158 55.5771 31.2158C55.7711 31.2158 55.9374 31.2435 56.1315 31.299C56.2978 31.3544 56.4641 31.4653 56.6304 31.6039C56.769 31.7426 56.9076 31.9366 56.9908 32.1584C57.0739 32.3802 57.1294 32.6574 57.1294 32.9901V33.2119H54.4129V32.7129H56.575C56.575 32.5188 56.5473 32.3247 56.4641 32.1861C56.3809 32.0198 56.2701 31.9089 56.1315 31.8257C55.9929 31.7426 55.8266 31.6871 55.6325 31.6871C55.4108 31.6871 55.2167 31.7426 55.0781 31.8534C54.9118 31.9643 54.8009 32.1029 54.7178 32.2693C54.6346 32.4356 54.5792 32.6297 54.5792 32.8237V33.1287C54.5792 33.4059 54.6346 33.6277 54.7178 33.794C54.8009 33.9881 54.9395 34.1267 55.1058 34.2099C55.2722 34.293 55.4662 34.3485 55.688 34.3485C55.8266 34.3485 55.9652 34.3208 56.076 34.293C56.1869 34.2653 56.2978 34.1822 56.3809 34.099C56.4641 34.0158 56.5195 33.9049 56.575 33.794L57.1016 33.9327C57.0462 34.099 56.9631 34.2653 56.8245 34.4039C56.6859 34.5426 56.5195 34.6534 56.3532 34.7089C56.1315 34.8198 55.9097 34.8475 55.6602 34.8475Z" fill="#878787"/>
<path d="M58.9863 34.8477C58.7645 34.8477 58.5705 34.7922 58.3764 34.709C58.1824 34.6259 58.0438 34.4873 57.9329 34.3487C57.822 34.1823 57.7666 33.9883 57.7666 33.7665C57.7666 33.5724 57.7943 33.4061 57.8775 33.2675C57.9606 33.1289 58.0715 33.0457 58.2101 32.9625C58.3487 32.8793 58.4873 32.8239 58.6536 32.7962C58.8199 32.7685 58.9863 32.7407 59.1526 32.713C59.3743 32.6853 59.5406 32.6576 59.6792 32.6576C59.8178 32.6298 59.901 32.6298 59.9842 32.5744C60.0396 32.5467 60.0673 32.4912 60.0673 32.3803V32.3526C60.0673 32.1308 60.0119 31.9368 59.8733 31.8259C59.7624 31.6873 59.5684 31.6318 59.3189 31.6318C59.0694 31.6318 58.8477 31.6873 58.7091 31.7982C58.5705 31.909 58.4596 32.0199 58.4041 32.1586L57.8775 31.9645C57.9606 31.7427 58.0992 31.5764 58.2378 31.4655C58.4042 31.3546 58.5705 31.2714 58.7368 31.216C58.9308 31.1605 59.0971 31.1328 59.2912 31.1328C59.402 31.1328 59.5406 31.1328 59.6792 31.1605C59.8178 31.1883 59.9842 31.2437 60.1228 31.3269C60.2614 31.41 60.3722 31.5487 60.4831 31.715C60.5663 31.8813 60.6217 32.1031 60.6217 32.3803V34.709H60.0673V34.2378H60.0396C60.0119 34.3209 59.9287 34.4041 59.8456 34.4873C59.7624 34.5704 59.6515 34.6536 59.5129 34.709C59.3743 34.8199 59.208 34.8477 58.9863 34.8477ZM59.0694 34.3764C59.2912 34.3764 59.4575 34.3209 59.6238 34.2378C59.7624 34.1546 59.8733 34.0437 59.9564 33.9051C60.0396 33.7665 60.0673 33.6279 60.0673 33.4892V32.9902C60.0396 33.018 59.9842 33.0457 59.9287 33.0734C59.8456 33.1011 59.7624 33.1011 59.6515 33.1289C59.5406 33.1566 59.4575 33.1566 59.3466 33.1566C59.2635 33.1566 59.1803 33.1843 59.1249 33.1843C58.9863 33.212 58.8477 33.2397 58.7368 33.2675C58.6259 33.2952 58.515 33.3784 58.4319 33.4615C58.3487 33.5447 58.321 33.6556 58.321 33.7942C58.321 33.9883 58.4041 34.1269 58.5427 34.21C58.6813 34.3209 58.8754 34.3764 59.0694 34.3764Z" fill="#878787"/>
<path d="M63.1439 31.2432V31.7145H61.3145V31.2432H63.1439ZM61.8688 30.3838H62.4232V33.766C62.4232 33.9323 62.4509 34.0432 62.4787 34.0986C62.5341 34.1818 62.5895 34.2373 62.645 34.2373C62.7281 34.265 62.7836 34.265 62.8667 34.265C62.9222 34.265 62.9776 34.265 63.0053 34.265C63.0331 34.265 63.0608 34.265 63.0885 34.2373L63.1994 34.7363C63.1717 34.764 63.1162 34.764 63.0331 34.7917C62.9776 34.8194 62.8945 34.8194 62.7836 34.8194C62.6173 34.8194 62.4787 34.7917 62.3401 34.7085C62.2015 34.6531 62.0629 34.5422 61.9797 34.4036C61.8966 34.265 61.8411 34.0986 61.8411 33.9046V30.3838H61.8688Z" fill="#878787"/>
<path d="M67.3295 31.2432V31.7145H65.5V31.2432H67.3295ZM66.0544 30.3838H66.6088V33.766C66.6088 33.9323 66.6365 34.0432 66.6642 34.0986C66.7197 34.1818 66.7751 34.2373 66.8305 34.2373C66.9137 34.265 66.9691 34.265 67.0523 34.265C67.1077 34.265 67.1632 34.265 67.1909 34.265C67.2186 34.265 67.2463 34.265 67.274 34.2373L67.3849 34.7363C67.3572 34.764 67.3018 34.764 67.2186 34.7917C67.1632 34.8194 67.08 34.8194 66.9691 34.8194C66.8028 34.8194 66.6642 34.7917 66.5256 34.7085C66.387 34.6531 66.2484 34.5422 66.1653 34.4036C66.0821 34.265 66.0267 34.0986 66.0267 33.9046V30.3838H66.0544Z" fill="#878787"/>
<path d="M69.5751 34.8469C69.2425 34.8469 68.9653 34.7637 68.7435 34.6251C68.4941 34.4865 68.3277 34.2647 68.1892 33.9875C68.0506 33.7103 67.9951 33.4053 67.9951 33.0172C67.9951 32.6568 68.0506 32.3241 68.1892 32.0469C68.3277 31.7697 68.5218 31.5479 68.7435 31.4093C68.993 31.2707 69.2702 31.1875 69.5751 31.1875C69.88 31.1875 70.185 31.2707 70.4067 31.4093C70.6562 31.5479 70.8225 31.7697 70.9611 32.0469C71.0997 32.3241 71.1551 32.6568 71.1551 33.0172C71.1551 33.3776 71.0997 33.7103 70.9611 33.9875C70.8225 34.2647 70.6285 34.4865 70.4067 34.6251C70.1572 34.7637 69.88 34.8469 69.5751 34.8469ZM69.5751 34.3756C69.8246 34.3756 70.0186 34.3202 70.185 34.1816C70.3513 34.0707 70.4621 33.9043 70.5453 33.6825C70.6285 33.4885 70.6562 33.2667 70.6562 33.0172C70.6562 32.7677 70.6285 32.5736 70.5453 32.3519C70.4621 32.1578 70.3513 31.9915 70.185 31.8528C70.0186 31.7142 69.8246 31.6588 69.5751 31.6588C69.3256 31.6588 69.1316 31.7142 68.9653 31.8528C68.799 31.9915 68.6881 32.1301 68.6049 32.3519C68.5218 32.5736 68.4941 32.7677 68.4941 33.0172C68.4941 33.2667 68.5218 33.4608 68.6049 33.6825C68.6881 33.8766 68.799 34.0429 68.9653 34.1816C69.1316 34.2925 69.3256 34.3756 69.5751 34.3756Z" fill="#878787"/>
<path d="M73.4277 34.8469C73.095 34.8469 72.8178 34.7637 72.5961 34.6251C72.3466 34.4865 72.1803 34.2647 72.0417 33.9875C71.9031 33.7103 71.8477 33.4053 71.8477 33.0172C71.8477 32.6568 71.9031 32.3241 72.0417 32.0469C72.1803 31.7697 72.3743 31.5479 72.5961 31.4093C72.8456 31.2707 73.1227 31.1875 73.4277 31.1875C73.7603 31.1875 74.0375 31.2707 74.2592 31.4093C74.5087 31.5479 74.675 31.7697 74.8136 32.0469C74.9522 32.3241 75.0077 32.6568 75.0077 33.0172C75.0077 33.3776 74.9522 33.7103 74.8136 33.9875C74.675 34.2647 74.481 34.4865 74.2592 34.6251C74.0375 34.7637 73.7603 34.8469 73.4277 34.8469ZM73.4277 34.3756C73.6771 34.3756 73.8712 34.3202 74.0375 34.1816C74.2038 34.0707 74.3147 33.9043 74.3978 33.6825C74.481 33.4885 74.5087 33.2667 74.5087 33.0172C74.5087 32.7677 74.481 32.5736 74.3978 32.3519C74.3147 32.1578 74.2038 31.9915 74.0375 31.8528C73.8712 31.7142 73.6771 31.6588 73.4277 31.6588C73.1782 31.6588 72.9842 31.7142 72.8178 31.8528C72.6515 31.9915 72.5406 32.1301 72.4575 32.3519C72.3743 32.5736 72.3466 32.7677 72.3466 33.0172C72.3466 33.2667 72.3743 33.4608 72.4575 33.6825C72.5406 33.8766 72.6515 34.0429 72.8178 34.1816C72.9842 34.2925 73.1782 34.3756 73.4277 34.3756Z" fill="#878787"/>
<path d="M77.4193 31.2432V31.7145H75.5898V31.2432H77.4193ZM76.1165 30.3838H76.6709V33.766C76.6709 33.9323 76.6986 34.0432 76.7263 34.0986C76.7818 34.1818 76.8372 34.2373 76.8927 34.2373C76.9758 34.265 77.0313 34.265 77.1144 34.265C77.1699 34.265 77.2253 34.265 77.253 34.265C77.2807 34.265 77.3084 34.265 77.3362 34.2373L77.447 34.7363C77.4193 34.764 77.3639 34.764 77.2807 34.7917C77.2253 34.8194 77.1421 34.8194 77.0312 34.8194C76.8649 34.8194 76.7263 34.7917 76.5877 34.7085C76.4491 34.6531 76.3105 34.5422 76.2274 34.4036C76.1442 34.265 76.0888 34.0986 76.0888 33.9046V30.3838H76.1165Z" fill="#878787"/>
<path d="M78.8337 32.6573V34.792H78.2793V30.0791H78.8337V31.8256H78.8891C78.9723 31.6316 79.0832 31.493 79.2772 31.3821C79.4435 31.2712 79.6653 31.2157 79.9425 31.2157C80.1919 31.2157 80.386 31.2712 80.58 31.3543C80.7741 31.4375 80.9126 31.6039 80.9958 31.7979C81.1067 31.992 81.1344 32.2415 81.1344 32.5464V34.792H80.58V32.5742C80.58 32.2969 80.4969 32.0751 80.3583 31.9088C80.2197 31.7425 80.0256 31.687 79.7484 31.687C79.5821 31.687 79.4158 31.7147 79.2772 31.7979C79.1386 31.8811 79.0277 31.992 78.9446 32.1306C78.8891 32.2692 78.8337 32.4355 78.8337 32.6573Z" fill="#878787"/>
<path d="M84.7656 34.7643L83.6846 31.2158H84.2667L85.0428 33.9327H85.0705L85.819 31.2158H86.4011L87.1495 33.9049H87.1772L87.9534 31.2158H88.5355L87.4544 34.7643H86.9277L86.1516 32.0475H86.0962L85.32 34.7643H84.7656Z" fill="#878787"/>
<path d="M89.5053 30.6612C89.3944 30.6612 89.3112 30.6335 89.2281 30.5503C89.1449 30.4672 89.1172 30.384 89.1172 30.3008C89.1172 30.1899 89.1449 30.1068 89.2281 30.0513C89.3112 29.9682 89.3944 29.9404 89.5053 29.9404C89.6161 29.9404 89.6993 29.9682 89.7825 30.0513C89.8656 30.1345 89.8933 30.2177 89.8933 30.3008C89.8933 30.4117 89.8656 30.4949 89.7825 30.5503C89.6993 30.6058 89.6161 30.6612 89.5053 30.6612ZM89.2281 34.7642V31.2157H89.7825V34.7642H89.2281Z" fill="#878787"/>
<path d="M92.3051 31.2432V31.7145H90.4756V31.2432H92.3051ZM91.0023 30.3838H91.5566V33.766C91.5566 33.9323 91.5844 34.0432 91.6121 34.0986C91.6675 34.1818 91.723 34.2373 91.7784 34.2373C91.8616 34.265 91.917 34.265 92.0002 34.265C92.0556 34.265 92.111 34.265 92.1388 34.265C92.1665 34.265 92.1942 34.265 92.2219 34.2373L92.3328 34.7363C92.3051 34.764 92.2496 34.764 92.1665 34.7917C92.111 34.8194 92.0279 34.8194 91.917 34.8194C91.7507 34.8194 91.6121 34.7917 91.4735 34.7085C91.3349 34.6531 91.1963 34.5422 91.1131 34.4036C91.03 34.265 90.9745 34.0986 90.9745 33.9046V30.3838H91.0023Z" fill="#878787"/>
<path d="M93.7468 32.6573V34.792H93.1924V30.0791H93.7468V31.8256H93.8022C93.8854 31.6316 93.9962 31.493 94.1903 31.3821C94.3843 31.2712 94.5784 31.2157 94.8555 31.2157C95.105 31.2157 95.2991 31.2712 95.4931 31.3543C95.6871 31.4375 95.8257 31.6039 95.9089 31.7979C96.0198 31.992 96.0475 32.2415 96.0475 32.5464V34.792H95.4931V32.5742C95.4931 32.2969 95.4099 32.0751 95.2713 31.9088C95.1327 31.7425 94.9387 31.687 94.6615 31.687C94.4952 31.687 94.3289 31.7147 94.1903 31.7979C94.0517 31.8811 93.9408 31.992 93.8576 32.1306C93.8022 32.2692 93.7468 32.4355 93.7468 32.6573Z" fill="#878787"/>
<path d="M100.316 34.8471C99.9831 34.8471 99.7059 34.764 99.4564 34.6253C99.207 34.459 99.0406 34.2649 98.902 33.9877C98.7634 33.7105 98.708 33.4055 98.708 33.0451C98.708 32.6847 98.7634 32.3798 98.902 32.1026C99.0406 31.8253 99.207 31.6036 99.4564 31.4649C99.7059 31.2986 99.9831 31.2432 100.288 31.2432C100.537 31.2432 100.759 31.2986 100.953 31.3818C101.147 31.4649 101.314 31.6036 101.452 31.7699C101.591 31.9362 101.646 32.1303 101.702 32.3521H101.147C101.092 32.1857 101.009 32.0471 100.87 31.9085C100.732 31.7699 100.537 31.7145 100.288 31.7145C100.066 31.7145 99.8999 31.7699 99.7336 31.8808C99.5673 31.9917 99.4564 32.158 99.3733 32.3521C99.2901 32.5461 99.2347 32.7956 99.2347 33.0451C99.2347 33.3224 99.2901 33.5442 99.3733 33.7659C99.4564 33.96 99.595 34.1263 99.7336 34.2372C99.8999 34.3481 100.094 34.4036 100.288 34.4036C100.427 34.4036 100.565 34.3758 100.676 34.3204C100.787 34.2649 100.898 34.2095 100.981 34.0986C101.064 34.0154 101.12 33.9046 101.147 33.7659H101.702C101.674 33.9877 101.591 34.1541 101.48 34.3204C101.369 34.4867 101.203 34.6253 101.009 34.7085C100.787 34.7917 100.565 34.8471 100.316 34.8471Z" fill="#878787"/>
<path d="M103.531 34.8477C103.309 34.8477 103.115 34.7922 102.921 34.709C102.727 34.6259 102.589 34.4873 102.478 34.3487C102.367 34.1823 102.312 33.9883 102.312 33.7665C102.312 33.5724 102.339 33.4061 102.422 33.2675C102.506 33.1289 102.616 33.0457 102.755 32.9625C102.894 32.8793 103.032 32.8239 103.199 32.7962C103.365 32.7685 103.531 32.7407 103.697 32.713C103.919 32.6853 104.086 32.6576 104.224 32.6576C104.363 32.6298 104.446 32.6298 104.529 32.5744C104.585 32.5467 104.612 32.4912 104.612 32.3803V32.3526C104.612 32.1308 104.557 31.9368 104.418 31.8259C104.307 31.6873 104.113 31.6318 103.864 31.6318C103.614 31.6318 103.393 31.6873 103.254 31.7982C103.115 31.909 103.005 32.0199 102.949 32.1586L102.422 31.9645C102.506 31.7427 102.644 31.5764 102.783 31.4655C102.949 31.3546 103.115 31.2714 103.282 31.216C103.476 31.1605 103.642 31.1328 103.836 31.1328C103.947 31.1328 104.086 31.1328 104.224 31.1605C104.363 31.1883 104.529 31.2437 104.668 31.3269C104.806 31.41 104.917 31.5487 105.028 31.715C105.111 31.8813 105.167 32.1031 105.167 32.3803V34.709H104.612V34.2378H104.585C104.557 34.3209 104.474 34.4041 104.39 34.4873C104.307 34.5704 104.196 34.6536 104.058 34.709C103.919 34.8199 103.725 34.8477 103.531 34.8477ZM103.614 34.3764C103.836 34.3764 104.002 34.3209 104.169 34.2378C104.307 34.1546 104.418 34.0437 104.501 33.9051C104.585 33.7665 104.612 33.6279 104.612 33.4892V32.9902C104.585 33.018 104.529 33.0457 104.474 33.0734C104.39 33.1011 104.307 33.1011 104.196 33.1289C104.086 33.1566 104.002 33.1566 103.892 33.1566C103.808 33.1566 103.725 33.1843 103.67 33.1843C103.531 33.212 103.393 33.2397 103.282 33.2675C103.171 33.2952 103.06 33.3784 102.977 33.4615C102.894 33.5447 102.866 33.6556 102.866 33.7942C102.866 33.9883 102.949 34.1269 103.088 34.21C103.226 34.3209 103.393 34.3764 103.614 34.3764Z" fill="#878787"/>
<path d="M106.137 34.7641V31.2156H106.663V31.7423H106.691C106.747 31.576 106.885 31.4374 107.051 31.3265C107.218 31.2156 107.412 31.1602 107.634 31.1602C107.661 31.1602 107.717 31.1602 107.772 31.1602C107.828 31.1602 107.883 31.1602 107.911 31.1602V31.7146C107.883 31.7146 107.855 31.7146 107.772 31.6869C107.717 31.6869 107.634 31.6592 107.578 31.6592C107.412 31.6592 107.245 31.6869 107.107 31.7701C106.968 31.8532 106.857 31.9364 106.802 32.075C106.719 32.2136 106.691 32.3522 106.691 32.4908V34.7364H106.137V34.7641Z" fill="#878787"/>
<path d="M109.935 34.8475C109.602 34.8475 109.297 34.7643 109.048 34.6257C108.798 34.4871 108.604 34.2653 108.466 33.9881C108.327 33.7109 108.271 33.4059 108.271 33.0455C108.271 32.6851 108.327 32.3525 108.466 32.0752C108.604 31.798 108.77 31.5762 109.02 31.4376C109.269 31.2713 109.547 31.2158 109.851 31.2158C110.046 31.2158 110.212 31.2435 110.406 31.299C110.572 31.3544 110.739 31.4653 110.905 31.6039C111.043 31.7426 111.182 31.9366 111.265 32.1584C111.348 32.3802 111.404 32.6574 111.404 32.9901V33.2119H108.687V32.7129H110.849C110.849 32.5188 110.822 32.3247 110.739 32.1861C110.655 32.0198 110.544 31.9089 110.406 31.8257C110.267 31.7426 110.101 31.6871 109.907 31.6871C109.685 31.6871 109.491 31.7426 109.353 31.8534C109.186 31.9643 109.075 32.1029 108.992 32.2693C108.909 32.4356 108.854 32.6297 108.854 32.8237V33.1287C108.854 33.4059 108.909 33.6277 108.992 33.794C109.075 33.9881 109.214 34.1267 109.38 34.2099C109.547 34.293 109.741 34.3485 109.962 34.3485C110.101 34.3485 110.24 34.3208 110.35 34.293C110.461 34.2653 110.572 34.1822 110.655 34.099C110.739 34.0158 110.794 33.9049 110.849 33.794L111.376 33.9327C111.321 34.099 111.237 34.2653 111.099 34.4039C110.96 34.5426 110.794 34.6534 110.628 34.7089C110.406 34.8198 110.184 34.8475 109.935 34.8475Z" fill="#878787"/>
<path d="M21.2604 41.057C10.1727 41.057 1.1084 32.0193 1.1084 20.9025C1.1084 9.78567 10.1727 0.748047 21.2604 0.748047C32.3482 0.748047 41.4125 9.78567 41.4125 20.9025C41.4125 32.0193 32.3759 41.057 21.2604 41.057ZM21.2604 1.27478C10.4499 1.27478 1.66279 10.0906 1.66279 20.9025C1.66279 31.7144 10.4776 40.5302 21.2882 40.5302C32.0987 40.5302 40.9135 31.7144 40.9135 20.9025C40.8858 10.0906 32.0987 1.27478 21.2604 1.27478Z" fill="black"/>
<path d="M15.0518 30.3008C14.6637 30.3008 14.3311 30.6335 14.3311 31.0216C14.3311 31.4097 14.6637 31.7424 15.0518 31.7424C15.4398 31.7424 15.7725 31.4097 15.7725 31.0216C15.7725 30.6057 15.4398 30.3008 15.0518 30.3008ZM15.0518 31.2988C14.9132 31.2988 14.7746 31.1879 14.7746 31.0216C14.7746 30.883 14.8854 30.7443 15.0518 30.7443C15.1904 30.7443 15.329 30.8552 15.329 31.0216C15.3012 31.1602 15.1904 31.2988 15.0518 31.2988Z" fill="black"/>
<path d="M17.5186 30.3008C17.1305 30.3008 16.7979 30.6335 16.7979 31.0216C16.7979 31.4097 17.1305 31.7424 17.5186 31.7424C17.9066 31.7424 18.2393 31.4097 18.2393 31.0216C18.2393 30.6057 17.9343 30.3008 17.5186 30.3008ZM17.5186 31.2988C17.38 31.2988 17.2414 31.1879 17.2414 31.0216C17.2414 30.883 17.3522 30.7443 17.5186 30.7443C17.6572 30.7443 17.7958 30.8552 17.7958 31.0216C17.7958 31.1602 17.6849 31.2988 17.5186 31.2988Z" fill="black"/>
<path d="M21.7039 13.7775C22.092 13.029 22.8404 11.9478 24.1155 11.1438C24.8362 10.6726 25.6678 10.3399 26.5271 10.1735C26.6379 10.1458 26.7211 10.0349 26.6934 9.89632C26.6657 9.78543 26.5548 9.70226 26.4162 9.72998C25.5014 9.89632 24.6421 10.2567 23.866 10.7557C22.5077 11.6151 21.7316 12.7518 21.3158 13.5557C21.2604 13.6666 21.2881 13.8052 21.399 13.8607C21.4267 13.8884 21.4821 13.8884 21.5098 13.8884C21.593 13.8884 21.6484 13.8607 21.7039 13.7775Z" fill="black"/>
<path d="M16.8806 17.6868C15.9381 17.1878 15.0234 17.6313 14.9402 17.6868C14.8294 17.7422 14.7739 17.8808 14.8294 17.9917C14.8848 18.1026 15.0234 18.1581 15.1343 18.1026C15.1897 18.0749 15.4115 17.964 15.7441 17.9363C15.4669 18.4353 15.4946 19.0729 15.855 19.5165C16.1322 19.9046 16.5757 20.0987 17.0192 20.0987C17.3241 20.0987 17.629 20.0155 17.9062 19.8214C17.9617 19.7937 17.9894 19.7105 17.9894 19.6551C18.0171 18.8234 17.5736 18.0472 16.8806 17.6868ZM16.2153 19.2392C15.9381 18.8511 15.9659 18.2967 16.2708 17.9363C16.4094 17.964 16.548 18.0194 16.6588 18.0749C17.1855 18.3521 17.5182 18.8789 17.5182 19.4888C17.1024 19.7383 16.5203 19.6274 16.2153 19.2392Z" fill="black"/>
<path d="M32.8195 27.1121C31.877 25.6982 30.6851 24.5893 29.2991 23.8685C28.6338 23.5081 27.8854 23.2586 27.137 23.0646C26.3054 22.8705 25.5847 22.3438 25.1966 21.5952C26.0559 20.0428 26.3609 18.4626 25.9451 17.0487C25.7233 16.2725 25.2798 15.5517 24.6145 14.9141C25.3907 14.4151 26.4163 13.5834 27.1647 12.2527C28.024 10.7834 28.1903 9.36951 28.1903 8.42693C28.1903 8.31604 28.1072 8.23287 28.024 8.20515C27.4696 8.09426 24.5868 7.59525 22.1198 9.4804C20.7892 10.5061 20.0963 11.8091 19.7636 12.7794C19.431 11.8091 18.7657 10.5061 17.4075 9.4804C14.9404 7.56753 12.0576 8.06654 11.5032 8.20515C11.3924 8.23287 11.3369 8.31604 11.3369 8.42693C11.3369 9.36951 11.5032 10.7834 12.3625 12.2527C13.1387 13.5834 14.1366 14.4151 14.9127 14.9141C14.2475 15.5517 13.8039 16.2725 13.5822 17.0487C13.0278 18.9616 13.7762 21.2349 15.5503 23.3418V26.2804C15.4117 26.1141 15.2454 25.9754 15.0513 25.8368C13.6931 24.8388 12.1962 25.0606 11.7527 25.1438C11.6418 25.1715 11.5864 25.2547 11.5587 25.3655C11.5587 25.8646 11.6695 26.6408 12.1408 27.4448C12.5288 28.1101 13.0278 28.5259 13.4436 28.8032C13.111 29.1358 12.9169 29.4962 12.7783 29.8844C12.3348 31.3259 13.305 33.1556 15.2731 34.5695C15.2731 34.7081 15.2731 34.8467 15.3008 34.9853C15.3562 35.3735 15.4671 35.6784 15.6334 35.9556V39.9477C15.7443 39.9754 15.8829 40.0032 15.9938 40.0586V36.4824C16.0492 36.5378 16.0769 36.5933 16.1324 36.621C16.1878 36.6764 16.2433 36.6764 16.2987 36.6764C16.3541 36.6764 16.4096 36.6487 16.465 36.621C16.5482 36.5378 16.5482 36.3992 16.465 36.2883C16.2433 36.0665 15.8829 35.623 15.772 34.9299C15.6889 34.4032 15.8275 33.9596 15.9383 33.7101H20.0131C20.1517 33.7101 20.2349 33.5992 20.2349 33.4883C20.2349 33.3497 20.124 33.2665 20.0131 33.2665H18.6826C19.6527 32.1299 20.0408 30.9378 19.7082 29.9121C19.5973 29.524 19.3756 29.1636 19.0429 28.8309C19.4587 28.5537 19.9577 28.1101 20.3457 27.4725C20.4289 27.3339 20.512 27.1675 20.5675 27.0289C20.8724 28.5259 21.7594 29.8566 23.1177 30.6883C23.3394 30.8269 23.5612 30.9933 23.7829 31.1873C25.2244 32.4071 25.8065 33.9873 26.0282 35.1517C26.0559 35.2903 26.1391 35.8448 26.1668 36.2052C26.1668 36.2329 26.1668 36.2883 26.1668 36.316C26.1668 36.3715 26.1668 36.4269 26.1668 36.4824C26.1668 36.4824 26.1668 36.4824 26.1668 36.5101C26.2223 37.4249 26.2777 39.1992 26.1668 40.225C26.3609 40.1695 26.5272 40.1141 26.7212 40.0863C26.6935 38.9774 26.638 36.3992 26.5826 35.9556C26.4717 34.7913 26.0005 32.518 24.0601 30.8824C23.8384 30.6883 23.5889 30.522 23.3394 30.3556C21.8426 29.4131 20.9278 27.8051 20.9001 26.0586C20.9556 26.0309 21.011 26.0032 21.0387 25.9477C22.7019 24.7834 23.977 23.425 24.8363 22.0665C25.3075 22.8151 26.0559 23.3418 26.943 23.5358C27.6637 23.7022 28.3567 23.9517 28.9942 24.2844C33.7619 26.7794 34.649 33.0448 34.7876 35.4844C34.9262 35.3457 35.0648 35.2071 35.2034 35.0685C35.1202 34.0705 34.9262 32.6566 34.5104 31.1596C34.1777 29.6071 33.5956 28.2487 32.8195 27.1121ZM20.0131 27.2507C19.5973 27.9715 19.0152 28.3873 18.5994 28.6091C18.544 28.6368 18.4885 28.72 18.4885 28.7754C18.4885 28.8586 18.5162 28.9141 18.5717 28.9695C18.9598 29.3022 19.2092 29.6626 19.3201 30.0507C19.5973 30.9933 19.1538 32.1853 18.1005 33.2665H15.7997C15.7166 33.2665 15.6334 33.322 15.6057 33.4051C15.5225 33.5438 15.4394 33.7933 15.384 34.0982C13.7208 32.823 12.8892 31.2705 13.2496 30.0784C13.3604 29.6903 13.6099 29.3299 13.998 28.9972C14.0534 28.9418 14.0811 28.8863 14.0811 28.8032C14.0811 28.72 14.0257 28.6646 13.9703 28.6368C13.5545 28.4151 13.0001 27.9992 12.5566 27.2784C12.1962 26.6685 12.0853 26.0586 12.0576 25.615C12.5566 25.5319 13.7485 25.4764 14.8018 26.2527C15.6611 26.8903 15.9661 27.7497 16.0769 28.221C16.1047 28.3319 16.1878 28.3873 16.2987 28.3873C16.4096 28.3873 16.4927 28.3042 16.5204 28.221C16.6313 27.7774 16.9362 26.918 17.7955 26.2527C17.9619 26.1141 18.1559 26.0032 18.3499 25.92C18.3777 25.92 18.3777 25.9477 18.4054 25.9477C18.8212 26.2527 19.2924 26.3913 19.7913 26.3913C20.0131 26.3913 20.2349 26.3636 20.4566 26.3081C20.318 26.6131 20.2071 26.9457 20.0131 27.2507ZM16.0215 26.8903V23.8962C16.5759 24.4784 17.2134 25.0606 17.9341 25.615C17.7955 25.6982 17.6569 25.7814 17.5183 25.8923C16.8808 26.3636 16.5204 26.9457 16.2987 27.4448C16.2155 27.2507 16.1324 27.0844 16.0215 26.8903ZM20.8724 25.5596C20.2071 26.0309 19.3201 26.0309 18.6548 25.5596C18.5994 25.5042 18.544 25.4764 18.4885 25.421C18.6826 24.8943 19.2092 24.5339 19.7636 24.5339C20.3457 24.5339 20.8447 24.8943 21.0387 25.421C20.9833 25.4764 20.9278 25.5319 20.8724 25.5596ZM24.8086 21.3457C24.0601 22.7042 22.8959 24.0071 21.3991 25.1715C21.0942 24.5339 20.4566 24.118 19.7359 24.118C19.0152 24.118 18.3777 24.5339 18.0727 25.1715C16.6036 24.0071 15.4394 22.7042 14.691 21.3457C13.8871 19.8764 13.6376 18.4349 13.998 17.215C14.2197 16.4388 14.691 15.718 15.4117 15.0804C15.4671 15.025 15.4948 14.9695 15.4948 14.8863C15.4948 14.8032 15.4394 14.7477 15.384 14.72C14.6078 14.2764 13.5268 13.4725 12.7229 12.0863C11.9745 10.8111 11.7804 9.53584 11.7527 8.67644C12.5566 8.53782 14.9959 8.28832 17.1026 9.89624C18.738 11.1715 19.3201 12.8349 19.5141 13.722C19.5419 13.8329 19.625 13.8883 19.7359 13.8883C19.8468 13.8883 19.9299 13.8052 19.9577 13.722C20.1517 12.8349 20.7338 11.1438 22.3693 9.89624C24.4759 8.2606 26.9152 8.5101 27.7191 8.67644C27.6914 9.56357 27.4973 10.8111 26.7489 12.0863C25.9451 13.4725 24.864 14.2764 24.0879 14.72C24.0324 14.7477 23.977 14.8309 23.977 14.8863C23.977 14.9695 24.0047 15.025 24.0601 15.0804C24.7808 15.718 25.2521 16.4388 25.4738 17.215C25.8619 18.4349 25.6401 19.8487 24.8086 21.3457Z" fill="black"/>
<path d="M24.5865 17.6868C24.4756 17.6313 23.5609 17.1878 22.6461 17.6868C21.9532 18.0472 21.5096 18.8234 21.5374 19.6274C21.5374 19.7105 21.5651 19.766 21.6205 19.7937C21.8977 19.9878 22.2026 20.0709 22.5075 20.0709C22.9511 20.0709 23.3946 19.8769 23.6718 19.4888C24.0321 19.0175 24.0598 18.4076 23.7826 17.9086C24.1153 17.9363 24.337 18.0472 24.3925 18.0749C24.5033 18.1303 24.6419 18.0749 24.6974 17.964C24.7528 17.8808 24.6974 17.7422 24.5865 17.6868ZM23.3114 19.2392C23.0065 19.6551 22.4244 19.7383 21.9809 19.4888C22.0086 18.9066 22.3412 18.3521 22.8402 18.0749C22.9788 17.9917 23.1174 17.964 23.2282 17.9363C23.5609 18.2967 23.5886 18.8511 23.3114 19.2392Z" fill="black"/>
<path d="M15.6609 10.7557C14.8847 10.2567 14.0254 9.92404 13.1107 9.72998C12.9998 9.70226 12.8612 9.78543 12.8335 9.89632C12.8058 10.0072 12.8889 10.1458 12.9998 10.1735C13.8591 10.3399 14.663 10.6726 15.4114 11.1438C16.6865 11.9478 17.4349 13.029 17.823 13.7775C17.8507 13.8607 17.9339 13.8884 18.017 13.8884C18.0448 13.8884 18.1002 13.8884 18.1279 13.8607C18.2388 13.8052 18.2942 13.6666 18.2111 13.5557C17.7953 12.7518 17.0191 11.6151 15.6609 10.7557Z" fill="black"/>
</svg>
