<svg width="24" height="24" viewBox="0 0 24 24" fill="none" xmlns="http://www.w3.org/2000/svg">
<path fill-rule="evenodd" clip-rule="evenodd" d="M1.64987 10.3318C8.09231 6.94489 12.3883 4.712 14.5378 3.63318C20.675 0.55293 21.9503 0.0178566 22.7815 0.000188334C22.9643 -0.00369704 23.3731 0.0509718 23.6379 0.310223C23.8614 0.52913 23.9229 0.824843 23.9524 1.03239C23.9818 1.23994 24.0185 1.71274 23.9893 2.08217C23.6568 6.2988 22.2177 16.5314 21.4856 21.2541C21.1758 23.2525 20.5658 23.9225 19.9753 23.9881C18.6919 24.1306 17.7174 22.9647 16.4744 21.9815C14.5294 20.443 13.4305 19.4853 11.5425 17.984C9.36064 16.249 10.7751 15.2954 12.0185 13.737C12.344 13.3291 17.9985 7.12301 18.1079 6.56002C18.1216 6.48961 18.1343 6.22715 18.0051 6.08856C17.8759 5.94997 17.6851 5.99736 17.5475 6.03505C17.3524 6.08848 14.2452 8.56668 8.22584 13.4697C7.34386 14.2005 6.545 14.5565 5.82924 14.5379C5.04017 14.5173 3.52233 13.9995 2.39397 13.5569C1.00999 13.0141 -0.0899685 12.7271 0.00581433 11.8051C0.0557005 11.3249 0.60372 10.8338 1.64987 10.3318Z" fill="#292824"/>
</svg>
