<svg width="25" height="24" viewBox="0 0 25 24" fill="none" xmlns="http://www.w3.org/2000/svg">
<path fill-rule="evenodd" clip-rule="evenodd" d="M1.74629 1.68707C0 3.37414 0 6.08942 0 11.52V12.48C0 17.9106 0 20.6259 1.74629 22.3129C3.49258 24 6.30318 24 11.9244 24H12.9181C18.5393 24 21.3499 24 23.0962 22.3129C24.8425 20.6259 24.8425 17.9106 24.8425 12.48V11.52C24.8425 6.08942 24.8425 3.37414 23.0962 1.68707C21.3499 0 18.5393 0 12.9181 0H11.9244C6.30318 0 3.49258 0 1.74629 1.68707ZM4.19222 7.30006C4.32677 13.5401 7.55626 17.29 13.2183 17.29H13.5392V13.72C15.6198 13.92 17.193 15.39 17.8244 17.29H20.7642C19.9568 14.45 17.8348 12.88 16.5098 12.28C17.8348 11.54 19.698 9.74004 20.1431 7.30006H17.4724C16.8928 9.28006 15.1747 11.08 13.5392 11.25V7.30006H10.8686V14.22C9.21241 13.82 7.12154 11.88 7.02839 7.30006H4.19222Z" fill="#292824"/>
</svg>
