<?xml version="1.0" encoding="utf-8"?><svg viewBox="0 0 132 54" xmlns="http://www.w3.org/2000/svg" xmlns:xlink="http://www.w3.org/1999/xlink"><style>:root>svg{display:none}:root>svg:target{display:block}</style><svg fill="none" viewBox="0 0 24 24" id="dzen" xmlns="http://www.w3.org/2000/svg"><path d="M11.95 23.996h.095c4.765 0 7.531-.48 9.49-2.382 1.998-2.018 2.46-4.802 2.46-9.549v-.134c0-4.745-.462-7.511-2.46-9.55C19.578.48 16.792 0 12.046 0h-.095C7.186 0 4.418.48 2.459 2.382.461 4.4 0 7.186 0 11.93v.134c0 4.745.461 7.511 2.459 9.549 1.94 1.902 4.727 2.382 9.49 2.382z" fill="#202022"/><path d="M21.138 11.816a.174.174 0 00-.166-.171c-3.28-.125-5.275-.543-6.672-1.94-1.4-1.399-1.816-3.396-1.94-6.683a.172.172 0 00-.172-.166h-.382a.174.174 0 00-.171.166c-.125 3.285-.542 5.284-1.94 6.684-1.399 1.397-3.393 1.814-6.673 1.939a.172.172 0 00-.166.17v.383c0 .092.075.168.166.172 3.28.124 5.276.542 6.672 1.939 1.396 1.396 1.813 3.388 1.939 6.662a.172.172 0 00.171.165h.384a.174.174 0 00.172-.165c.125-3.274.542-5.266 1.939-6.662 1.398-1.398 3.392-1.815 6.672-1.94a.172.172 0 00.165-.17v-.383h.002z" fill="#fff"/></svg><svg fill="none" viewBox="0 0 132 42" id="logo" xmlns="http://www.w3.org/2000/svg"><path d="M57.767 10.978c.194-.278.277-.472.249-.583-.028-.11-.11-.25-.25-.415-.138-.167-.194-.305-.194-.389v-.055c0-.194.14-.277.444-.277h2.523c.277 0 .415.083.415.277v.055c0 .111-.083.25-.25.36-.166.112-.387.278-.664.444-.278.194-.527.389-.693.583l-3.271 3.27 4.823 7.763c.166.277.36.5.554.666.194.166.333.305.416.388a.445.445 0 01.139.305v.055c0 .194-.139.277-.416.277h-3.604c-.277 0-.416-.083-.416-.277v-.055c0-.084.111-.25.36-.5.223-.249.278-.47.167-.72l-3.714-6.21-2.55 2.55v3.521c0 .305.138.582.415.804.278.25.416.416.416.555v.055c0 .194-.138.277-.443.277h-3.188c-.277 0-.416-.083-.416-.277v-.055c0-.111.139-.305.388-.555.25-.25.388-.527.388-.804V10.95c0-.305-.138-.555-.388-.804-.25-.25-.388-.416-.388-.527v-.055c0-.194.139-.277.416-.277h3.188c.277 0 .416.083.416.277v.055c0 .111-.14.305-.416.527-.277.25-.416.499-.416.804v5.988l5.96-5.96zM66.83 23.924c-1.386 0-2.55-.471-3.465-1.414-.914-.943-1.386-2.19-1.386-3.743 0-1.441.472-2.633 1.414-3.576.943-.942 2.107-1.414 3.465-1.414 1.22 0 2.162.305 2.828.915.665.61.997 1.303.997 2.107 0 .693-.36 1.165-1.053 1.414l-4.934 1.746c.25.694.638 1.248 1.164 1.636.527.388 1.137.582 1.83.582.61 0 1.136-.138 1.607-.415.444-.278.804-.638.998-1.054.111-.166.25-.194.416-.166.166.055.25.166.25.36-.111.72-.527 1.414-1.275 2.052-.721.637-1.691.97-2.856.97zm-2.467-6.1c0 .472.028.888.111 1.304l3.382-1.47c.36-.166.527-.443.527-.859 0-.499-.194-.998-.555-1.525-.388-.526-.831-.776-1.386-.776-.637 0-1.136.305-1.524.915-.388.61-.555 1.414-.555 2.412zM79.72 23.73c-.304 0-.443-.11-.443-.305v-.083c0-.11.139-.305.388-.527.25-.25.36-.499.36-.804l-.193-3.936c-.083-2.246-.804-3.355-2.135-3.355-.637 0-1.164.222-1.552.693-.388.472-.582 1.082-.582 1.83v4.796c0 .305.138.555.416.804.277.222.415.416.415.527v.083c0 .194-.138.305-.443.305h-3.16c-.277 0-.416-.111-.416-.305v-.083c0-.111.139-.305.416-.527.277-.222.416-.499.416-.804v-5.461a.988.988 0 00-.222-.638c-.166-.166-.305-.305-.471-.388-.139-.11-.222-.222-.222-.333v-.055c0-.139.11-.25.36-.36l1.968-.943c.222-.083.388-.111.472-.028.11.083.166.194.166.388v1.303a2.979 2.979 0 011.247-1.303 3.771 3.771 0 011.858-.471c1.053 0 1.94.36 2.66 1.081.721.721 1.137 1.83 1.22 3.355l.25 3.853c0 .305.138.555.388.804.25.25.36.416.36.527v.083c0 .194-.166.305-.471.305h-3.05v-.028zM88.813 21.928c-1.303 0-2.384-.389-3.244-1.165-.887-.776-1.33-1.719-1.33-2.855 0-1.22.443-2.246 1.303-3.022.859-.776 1.995-1.164 3.381-1.164.36 0 .915.027 1.691.11.776.084 1.58.111 2.412.111.277 0 .499.028.665.084.166.055.25.11.277.194.028.083 0 .166-.055.277a.607.607 0 01-.333.36c-.166.056-.388.111-.665.167-.305.055-.471.083-.582.11.388.333.693.75.915 1.248.25.5.36.97.36 1.47 0 .803-.222 1.524-.638 2.134-.415.638-.998 1.109-1.746 1.47 1.691.387 2.523 1.191 2.523 2.439 0 .887-.472 1.608-1.386 2.135-.915.526-2.107.804-3.52.804-1.442 0-2.606-.305-3.438-.888-.832-.582-1.275-1.275-1.275-2.079 0-.277.083-.499.25-.693.166-.194.415-.277.72-.277.277 0 .5.11.693.333.194.221.333.47.471.776.139.305.305.61.472.915.194.305.47.582.831.804.36.221.804.332 1.358.332.749 0 1.33-.194 1.747-.582.443-.388.665-.887.665-1.525 0-.582-.166-1.053-.471-1.441-.305-.388-.749-.61-1.303-.638-.333.056-.582.056-.749.056zm-2.218-5.018c0 1.164.25 2.134.776 2.994.527.831 1.137 1.247 1.83 1.247.61 0 1.108-.221 1.496-.665.36-.444.555-1.026.555-1.747 0-1.164-.25-2.134-.776-2.966-.5-.832-1.165-1.247-1.94-1.247-.61 0-1.082.221-1.414.665-.36.444-.527.998-.527 1.719zM103.476 23.84c-.555 0-.943-.082-1.192-.249-.25-.166-.388-.499-.444-.97-.554.86-1.497 1.303-2.827 1.303-1.137 0-2.052-.277-2.772-.804-.693-.527-1.053-1.303-1.053-2.273 0-.97.332-1.719 1.025-2.246.693-.526 1.58-.804 2.661-.804.97 0 1.774.222 2.356.693l-.027-.415c-.111-1.248-.333-2.163-.666-2.717-.305-.583-.803-.86-1.497-.86-.415 0-.776.139-1.053.388-.277.25-.471.527-.582.832-.11.305-.25.582-.444.832s-.443.388-.72.388c-.305 0-.527-.083-.72-.25-.195-.166-.278-.388-.278-.693 0-.637.36-1.192 1.081-1.635.72-.444 1.608-.666 2.689-.666 1.275 0 2.3.388 3.104 1.137.777.748 1.248 1.802 1.386 3.105l.416 3.909c.028.305.111.527.222.693.138.166.249.277.388.305a.857.857 0 01.36.166c.111.083.167.166.167.277.083.388-.472.555-1.58.555zm-5.877-3.27c0 .72.194 1.33.582 1.83.388.498.887.748 1.497.748.554 0 .998-.194 1.358-.61.361-.416.499-.887.472-1.442l-.084-.637c-.027-.582-.221-1.054-.582-1.386-.36-.333-.804-.5-1.33-.5-.582 0-1.026.195-1.386.555-.333.333-.527.832-.527 1.442zM106.636 23.73c-.278 0-.416-.083-.416-.277v-.055c0-.111.138-.305.388-.527.249-.25.388-.5.388-.804v-11.09c0-.304-.139-.554-.388-.803-.25-.25-.388-.416-.388-.527v-.055c0-.194.138-.278.416-.278h4.601c1.857 0 3.354.389 4.463 1.137 1.109.776 1.691 1.885 1.691 3.382 0 .86-.25 1.664-.776 2.384-.527.721-1.276 1.248-2.246 1.608l2.883 4.214c.166.25.36.444.61.61.249.166.416.305.554.388a.361.361 0 01.194.333v.055c0 .194-.138.278-.415.278h-3.549c-.277 0-.415-.084-.415-.278v-.055c0-.111.083-.222.221-.36.139-.14.25-.25.305-.36.056-.112.028-.306-.111-.61l-2.577-3.882h-.167l-2.439.028v3.826c0 .304.138.554.416.803.277.25.415.416.415.527v.056c0 .194-.138.277-.443.277h-3.215v.055zm2.799-7.734c0 .776.333 1.164.998 1.164h1.137c.997 0 1.801-.277 2.383-.804.61-.527.887-1.275.887-2.273 0-1.192-.36-2.135-1.108-2.8-.749-.666-1.636-.998-2.689-.998h-1.026c-.416 0-.61.277-.61.804v4.907h.028zM123.767 23.924c-1.137 0-2.052-.388-2.745-1.136-.693-.749-1.025-1.858-1.025-3.3v-3.52c0-.305-.139-.582-.388-.832-.25-.25-.388-.416-.388-.526v-.056c0-.194.111-.333.36-.36l2.134-.333c.472-.056.693.028.693.305l-.027 5.6c0 2.162.665 3.244 2.023 3.244.61 0 1.137-.25 1.553-.75.415-.498.637-1.163.637-1.995v-4.297c0-.305-.139-.582-.388-.832-.277-.25-.388-.416-.388-.526v-.056c0-.194.111-.333.333-.36l2.189-.333c.444-.056.666.028.638.305v7.68c0 .36.055.609.166.803.111.166.222.277.361.305.138.028.249.055.36.11.111.056.166.167.166.306 0 .332-.499.499-1.524.499-.582 0-.998-.111-1.275-.333-.278-.222-.388-.61-.388-1.164-.61 1.026-1.636 1.552-3.077 1.552z" fill="#000"/><path d="M47.898 30.578v-.499h3.548v.5H49.95v4.213h-.582v-4.214h-1.47zM51.862 34.764v-3.548h.527v.526h.028c.055-.166.194-.305.36-.416.166-.11.36-.166.582-.166h.277v.555c-.027 0-.055 0-.138-.028-.083-.028-.139-.028-.194-.028a.91.91 0 00-.471.111c-.14.083-.25.166-.305.305a.782.782 0 00-.111.416v2.245h-.555v.028zM55.66 34.847c-.332 0-.637-.083-.887-.221a1.449 1.449 0 01-.582-.638c-.139-.277-.194-.582-.194-.943 0-.36.056-.693.194-.97.139-.277.305-.499.554-.637.25-.167.527-.222.832-.222.194 0 .36.027.555.083.166.055.332.166.498.305.139.139.278.333.36.554.084.222.14.5.14.832v.222h-2.717v-.5h2.162c0-.193-.028-.387-.11-.526a.843.843 0 00-.334-.36.958.958 0 00-.498-.139c-.222 0-.416.056-.555.166-.166.111-.277.25-.36.416-.083.167-.139.36-.139.555v.305c0 .277.056.499.139.665a.815.815 0 00.388.416c.166.083.36.139.582.139.139 0 .277-.028.388-.056a.716.716 0 00.305-.194c.083-.083.139-.194.194-.305l.527.139a1.177 1.177 0 01-.277.47c-.14.14-.306.25-.472.306-.221.11-.443.138-.693.138zM58.986 34.848a1.51 1.51 0 01-.61-.139 1.156 1.156 0 01-.443-.36 1.025 1.025 0 01-.166-.582c0-.195.027-.36.11-.5a.881.881 0 01.333-.305c.139-.083.277-.138.444-.166l.499-.083c.221-.028.388-.055.526-.055.139-.028.222-.028.305-.084.056-.027.083-.083.083-.194v-.027c0-.222-.055-.416-.194-.527-.11-.139-.305-.194-.554-.194-.25 0-.471.055-.61.166-.139.111-.25.222-.305.36l-.527-.194c.084-.221.222-.388.36-.498.167-.111.334-.195.5-.25.194-.056.36-.083.554-.083.111 0 .25 0 .388.027.139.028.305.084.444.167.138.083.25.222.36.388.083.166.139.388.139.665v2.329h-.555v-.471h-.027c-.028.083-.111.166-.194.25a.998.998 0 01-.333.221c-.139.11-.305.139-.527.139zm.083-.472c.222 0 .389-.055.555-.138a.955.955 0 00.332-.333.782.782 0 00.111-.416v-.499a.6.6 0 01-.138.083c-.083.028-.167.028-.278.056-.11.028-.194.028-.304.028-.084 0-.167.027-.222.027-.139.028-.277.056-.388.084a.717.717 0 00-.305.194c-.083.083-.111.194-.111.332 0 .194.083.333.222.416.138.11.332.166.526.166zM63.144 31.243v.472h-1.83v-.472h1.83zm-1.275-.86h.554v3.383c0 .166.028.277.056.333.055.083.11.138.166.138a.61.61 0 00.222.028h.138c.028 0 .056 0 .084-.028l.11.5c-.027.027-.083.027-.166.055-.055.027-.139.027-.25.027a.813.813 0 01-.443-.11.766.766 0 01-.36-.305.958.958 0 01-.139-.5v-3.52h.028zM67.33 31.243v.472H65.5v-.472h1.83zm-1.276-.86h.555v3.383c0 .166.028.277.055.333.056.083.111.138.166.138.084.028.14.028.222.028h.139c.028 0 .055 0 .083-.028l.11.5c-.027.027-.082.027-.165.055-.056.027-.139.027-.25.027a.813.813 0 01-.443-.11.766.766 0 01-.36-.305.957.957 0 01-.14-.5v-3.52h.028zM69.575 34.847c-.332 0-.61-.083-.832-.222-.249-.139-.415-.36-.554-.638-.138-.277-.194-.582-.194-.97 0-.36.056-.693.194-.97.139-.277.333-.5.555-.638.249-.138.526-.221.831-.221.305 0 .61.083.832.221.25.139.416.36.554.638.139.277.194.61.194.97s-.055.693-.194.97a1.574 1.574 0 01-.554.638c-.25.139-.527.222-.832.222zm0-.471c.25 0 .444-.056.61-.194.166-.111.277-.278.36-.5.084-.194.111-.415.111-.665 0-.25-.028-.443-.11-.665a1.284 1.284 0 00-.361-.5c-.166-.138-.36-.193-.61-.193s-.443.055-.61.194a1.11 1.11 0 00-.36.499c-.083.222-.11.416-.11.665 0 .25.027.444.11.665.083.195.194.36.36.5.167.11.36.194.61.194zM73.428 34.847c-.333 0-.61-.083-.832-.222-.25-.139-.416-.36-.554-.638-.139-.277-.194-.582-.194-.97 0-.36.055-.693.194-.97.138-.277.332-.5.554-.638.25-.138.527-.221.832-.221.332 0 .61.083.831.221.25.139.416.36.555.638.138.277.194.61.194.97s-.056.693-.194.97a1.574 1.574 0 01-.555.638 1.544 1.544 0 01-.831.222zm0-.471c.25 0 .443-.056.61-.194.166-.111.277-.278.36-.5.083-.194.11-.415.11-.665 0-.25-.027-.443-.11-.665a1.283 1.283 0 00-.36-.5c-.167-.138-.36-.193-.61-.193s-.444.055-.61.194a1.11 1.11 0 00-.36.499c-.084.222-.111.416-.111.665 0 .25.027.444.11.665.084.195.195.36.36.5.167.11.361.194.61.194zM77.42 31.243v.472h-1.83v-.472h1.83zm-1.303-.86h.554v3.383c0 .166.028.277.055.333.056.083.111.138.167.138a.61.61 0 00.221.028h.139c.028 0 .055 0 .083-.028l.111.5c-.028.027-.083.027-.166.055-.056.027-.139.027-.25.027a.813.813 0 01-.443-.11.766.766 0 01-.36-.305.957.957 0 01-.14-.5v-3.52h.029zM78.834 32.657v2.135h-.555v-4.713h.555v1.747h.055a.864.864 0 01.388-.444c.166-.11.388-.166.665-.166.25 0 .444.055.638.138.194.084.333.25.416.444.11.194.138.444.138.748v2.246h-.554v-2.218c0-.277-.083-.499-.222-.665-.138-.166-.332-.222-.61-.222a.91.91 0 00-.47.11.955.955 0 00-.333.334c-.056.138-.111.304-.111.526zM84.766 34.764l-1.081-3.548h.582l.776 2.717h.027l.749-2.717h.582l.749 2.689h.027l.776-2.69h.582l-1.08 3.55h-.527l-.776-2.718h-.056l-.776 2.717h-.554zM89.505 30.661a.356.356 0 01-.277-.11.338.338 0 01-.11-.25c0-.111.027-.194.11-.25a.356.356 0 01.277-.11c.111 0 .194.027.278.11.083.084.11.167.11.25 0 .11-.027.194-.11.25-.084.055-.167.11-.278.11zm-.277 4.103v-3.548h.555v3.548h-.555zM92.305 31.243v.472h-1.83v-.472h1.83zm-1.303-.86h.555v3.383c0 .166.027.277.055.333.056.083.111.138.166.138.084.028.139.028.222.028h.139c.028 0 .055 0 .083-.028l.11.5c-.027.027-.082.027-.165.055-.056.027-.14.027-.25.027a.813.813 0 01-.444-.11.766.766 0 01-.36-.305.958.958 0 01-.138-.5v-3.52h.027zM93.747 32.657v2.135h-.555v-4.713h.555v1.747h.055a.864.864 0 01.388-.444c.194-.11.388-.166.666-.166.249 0 .443.055.637.138.194.084.333.25.416.444.11.194.138.444.138.748v2.246h-.554v-2.218c0-.277-.083-.499-.222-.665-.138-.166-.332-.222-.61-.222a.91.91 0 00-.47.11.957.957 0 00-.333.334c-.056.138-.111.304-.111.526zM100.316 34.847a1.72 1.72 0 01-.86-.222 1.55 1.55 0 01-.554-.637c-.139-.277-.194-.582-.194-.943 0-.36.055-.665.194-.942.139-.278.305-.5.554-.638.25-.166.527-.222.832-.222.249 0 .471.056.665.139.194.083.361.222.499.388.139.166.194.36.25.582h-.555a1.076 1.076 0 00-.277-.443c-.138-.14-.333-.194-.582-.194a.936.936 0 00-.554.166c-.167.11-.278.277-.36.471a1.815 1.815 0 00-.14.693c0 .277.056.5.14.72.082.195.221.361.36.472a1 1 0 00.554.167.885.885 0 00.388-.084c.111-.055.222-.11.305-.221a.628.628 0 00.166-.333h.555a1.235 1.235 0 01-.222.554 1.084 1.084 0 01-.471.389 1.932 1.932 0 01-.693.138zM103.531 34.848a1.51 1.51 0 01-.61-.139 1.155 1.155 0 01-.443-.36 1.024 1.024 0 01-.166-.582c0-.195.027-.36.11-.5a.886.886 0 01.333-.305c.139-.083.277-.138.444-.166l.498-.083c.222-.028.389-.055.527-.055.139-.028.222-.028.305-.084.056-.027.083-.083.083-.194v-.027c0-.222-.055-.416-.194-.527-.111-.139-.305-.194-.554-.194-.25 0-.471.055-.61.166-.139.111-.249.222-.305.36l-.527-.194a1.17 1.17 0 01.361-.498c.166-.111.332-.195.499-.25.194-.056.36-.083.554-.083.111 0 .25 0 .388.027.139.028.305.084.444.167.138.083.249.222.36.388.083.166.139.388.139.665v2.329h-.555v-.471h-.027c-.028.083-.111.166-.195.25a.998.998 0 01-.332.221c-.139.11-.333.139-.527.139zm.083-.472c.222 0 .388-.055.555-.138a.958.958 0 00.332-.333.775.775 0 00.111-.416v-.499c-.027.028-.083.056-.138.083-.084.028-.167.028-.278.056-.11.028-.194.028-.304.028-.084 0-.167.027-.222.027a8.772 8.772 0 00-.388.084.717.717 0 00-.305.194c-.083.083-.111.194-.111.332 0 .194.083.333.222.416.138.11.305.166.526.166zM106.137 34.764v-3.548h.526v.526h.028c.056-.166.194-.305.36-.416.167-.11.361-.166.583-.166h.277v.555c-.028 0-.056 0-.139-.028-.055 0-.138-.028-.194-.028a.91.91 0 00-.471.111c-.139.083-.25.166-.305.305a.784.784 0 00-.111.416v2.245h-.554v.028zM109.935 34.847c-.333 0-.638-.083-.887-.221a1.442 1.442 0 01-.582-.638c-.139-.277-.195-.582-.195-.943 0-.36.056-.693.195-.97.138-.277.304-.499.554-.637.249-.167.527-.222.831-.222.195 0 .361.027.555.083.166.055.333.166.499.305.138.139.277.333.36.554.083.222.139.5.139.832v.222h-2.717v-.5h2.162c0-.193-.027-.387-.11-.526a.852.852 0 00-.333-.36.96.96 0 00-.499-.139c-.222 0-.416.056-.554.166-.167.111-.278.25-.361.416-.083.167-.138.36-.138.555v.305c0 .277.055.499.138.665a.816.816 0 00.388.416c.167.083.361.139.582.139.139 0 .278-.028.388-.056a.716.716 0 00.305-.194c.084-.083.139-.194.194-.305l.527.139a1.179 1.179 0 01-.277.47c-.139.14-.305.25-.471.306-.222.11-.444.138-.693.138z" fill="#878787"/><path d="M21.26 41.057c-11.087 0-20.152-9.038-20.152-20.155C1.108 9.787 10.173.748 21.26.748c11.088 0 20.152 9.038 20.152 20.154 0 11.117-9.036 20.155-20.152 20.155zm0-39.782c-10.81 0-19.597 8.816-19.597 19.628 0 10.811 8.815 19.627 19.625 19.627s19.625-8.816 19.625-19.628C40.886 10.091 32.1 1.276 21.26 1.276z" fill="#000"/><path d="M15.052 30.3a.734.734 0 00-.72.722c0 .388.332.72.72.72.388 0 .72-.332.72-.72a.716.716 0 00-.72-.721zm0 .999a.278.278 0 010-.555c.138 0 .277.111.277.278-.028.138-.139.277-.277.277zM17.519 30.3a.734.734 0 00-.721.722c0 .388.333.72.72.72.389 0 .721-.332.721-.72a.7.7 0 00-.72-.721zm0 .999a.278.278 0 010-.555.278.278 0 010 .555zM21.704 13.777a6.888 6.888 0 012.412-2.633 6.796 6.796 0 012.411-.97.23.23 0 00.166-.278.23.23 0 00-.277-.166 7.056 7.056 0 00-2.55 1.026 7.249 7.249 0 00-2.55 2.8c-.056.11-.028.25.083.305.028.027.083.027.11.027.084 0 .14-.027.195-.11zM16.88 17.687c-.942-.5-1.857-.056-1.94 0-.11.055-.166.194-.11.305.055.11.193.166.304.11.056-.027.277-.138.61-.166-.277.5-.25 1.137.111 1.58.277.389.72.583 1.164.583.305 0 .61-.084.887-.278.056-.027.083-.11.083-.166.028-.832-.415-1.608-1.108-1.968zm-.665 1.552a1.082 1.082 0 01.056-1.303 1.582 1.582 0 011.247 1.553c-.416.25-.998.138-1.303-.25z" fill="#000"/><path d="M32.82 27.112c-.943-1.414-2.135-2.523-3.52-3.243-.666-.36-1.415-.61-2.163-.804-.832-.195-1.552-.721-1.94-1.47.859-1.552 1.164-3.132.748-4.546-.222-.776-.665-1.497-1.33-2.135.776-.499 1.801-1.33 2.55-2.661a7.53 7.53 0 001.025-3.826.241.241 0 00-.166-.222c-.554-.11-3.437-.61-5.904 1.275a7.081 7.081 0 00-2.356 3.3c-.333-.97-.998-2.274-2.357-3.3-2.467-1.912-5.35-1.413-5.904-1.275-.11.028-.166.111-.166.222a7.53 7.53 0 001.026 3.826 7.865 7.865 0 002.55 2.661c-.665.638-1.11 1.359-1.33 2.135-.555 1.913.193 4.186 1.967 6.293v2.938a2.59 2.59 0 00-.499-.443c-1.358-.998-2.855-.776-3.298-.693-.111.028-.167.11-.194.222 0 .499.11 1.275.582 2.079a4.102 4.102 0 001.303 1.358 2.798 2.798 0 00-.666 1.081c-.443 1.442.527 3.272 2.495 4.685 0 .14 0 .278.028.416.055.389.166.693.332.97v3.993c.111.027.25.055.36.11v-3.576c.056.056.084.111.14.139.055.055.11.055.166.055.055 0 .11-.027.166-.055.083-.083.083-.222 0-.333a2.458 2.458 0 01-.693-1.358c-.083-.527.056-.97.166-1.22h4.075c.139 0 .222-.11.222-.222a.219.219 0 00-.222-.221h-1.33c.97-1.137 1.358-2.33 1.025-3.355-.11-.388-.332-.748-.665-1.081.416-.277.915-.72 1.303-1.358.083-.14.166-.305.221-.444a5.561 5.561 0 002.55 3.66c.222.138.444.304.666.498 1.441 1.22 2.023 2.8 2.245 3.965.028.138.111.693.139 1.053V36.51c.055.915.11 2.69 0 3.715.194-.056.36-.11.554-.139-.027-1.109-.083-3.687-.138-4.13-.111-1.165-.582-3.438-2.523-5.074-.222-.194-.471-.36-.72-.526a5.174 5.174 0 01-2.44-4.297c.056-.028.111-.056.139-.111 1.663-1.165 2.938-2.523 3.797-3.881a3.304 3.304 0 002.107 1.469c.72.166 1.414.416 2.051.748 4.768 2.495 5.655 8.76 5.794 11.2l.415-.416a21.664 21.664 0 00-.693-3.908c-.332-1.553-.914-2.911-1.69-4.048zm-12.807.139a3.568 3.568 0 01-1.414 1.358c-.055.028-.11.111-.11.166 0 .084.027.14.083.195.388.332.637.693.748 1.08.277.943-.166 2.135-1.22 3.216h-2.3a.209.209 0 00-.194.14c-.083.138-.167.387-.222.692-1.663-1.275-2.495-2.828-2.134-4.02.11-.388.36-.748.748-1.08a.252.252 0 00.083-.195.187.187 0 00-.11-.166 3.754 3.754 0 01-1.414-1.359 3.718 3.718 0 01-.5-1.663c.5-.083 1.691-.139 2.745.638.86.637 1.164 1.497 1.275 1.968.028.11.11.166.222.166.11 0 .194-.083.221-.166a3.584 3.584 0 011.276-1.968c.166-.139.36-.25.554-.333.028 0 .028.028.055.028.416.305.887.443 1.386.443.222 0 .444-.027.666-.083-.139.305-.25.638-.444.943zm-3.992-.36v-2.995a16.728 16.728 0 001.913 1.719c-.139.083-.277.166-.416.277a3.81 3.81 0 00-1.22 1.553 5.174 5.174 0 00-.276-.555zm4.851-1.331a1.916 1.916 0 01-2.217 0c-.056-.056-.111-.084-.167-.139a1.38 1.38 0 011.276-.887c.582 0 1.08.36 1.275.887a.735.735 0 01-.167.139zm3.937-4.214c-.749 1.358-1.913 2.661-3.41 3.826a1.84 1.84 0 00-3.326 0c-1.47-1.165-2.634-2.468-3.382-3.826-.804-1.47-1.053-2.911-.693-4.131.222-.776.693-1.497 1.414-2.135a.252.252 0 00.083-.194.187.187 0 00-.111-.166 7.176 7.176 0 01-3.631-6.044c.804-.138 3.243-.388 5.35 1.22a6.713 6.713 0 012.411 3.826c.028.11.111.166.222.166.11 0 .194-.083.222-.166.194-.887.776-2.578 2.411-3.826 2.107-1.635 4.546-1.386 5.35-1.22a7.175 7.175 0 01-3.631 6.044c-.056.028-.111.11-.111.166 0 .084.028.139.083.194.72.638 1.192 1.359 1.414 2.135.388 1.22.166 2.634-.665 4.13z" fill="#000"/><path d="M24.587 17.687c-.111-.056-1.026-.5-1.94 0-.694.36-1.137 1.136-1.11 1.94 0 .084.028.139.084.167.277.194.582.277.887.277.443 0 .887-.194 1.164-.582a1.43 1.43 0 00.11-1.58c.333.027.555.138.61.166.111.055.25 0 .305-.111.056-.083 0-.222-.11-.277zm-1.276 1.552c-.305.416-.887.5-1.33.25.028-.582.36-1.137.86-1.414.138-.083.276-.111.387-.139.333.36.36.915.083 1.303zM15.66 10.756a7.59 7.59 0 00-2.55-1.026.246.246 0 00-.276.166c-.028.111.055.25.166.277.86.167 1.663.5 2.411.97a6.888 6.888 0 012.412 2.634c.028.084.11.111.194.111.028 0 .083 0 .11-.027.112-.056.167-.194.084-.305a7.25 7.25 0 00-2.55-2.8z" fill="#000"/></svg><svg fill="none" viewBox="0 0 20 20" id="search" xmlns="http://www.w3.org/2000/svg"><path fill-rule="evenodd" clip-rule="evenodd" d="M9.534 2.558a6.977 6.977 0 104.827 12.015.938.938 0 01.212-.212A6.977 6.977 0 009.535 2.558zm6.873 12.533a8.837 8.837 0 10-1.316 1.316l2.623 2.622a.93.93 0 101.316-1.315l-2.623-2.623z" fill="#292824"/></svg><svg fill="none" viewBox="0 0 10 8" id="slider-arrow-left" xmlns="http://www.w3.org/2000/svg"><path fill-rule="evenodd" clip-rule="evenodd" d="M4.354.646a.5.5 0 010 .708L2.207 3.5H9a.5.5 0 010 1H2.207l2.147 2.146a.5.5 0 11-.708.708l-3-3a.5.5 0 010-.708l3-3a.5.5 0 01.708 0z" fill="#fff"/></svg><svg fill="none" viewBox="0 0 10 8" id="slider-arrow-right" xmlns="http://www.w3.org/2000/svg"><path fill-rule="evenodd" clip-rule="evenodd" d="M5.646 7.354a.5.5 0 010-.708L7.793 4.5H1a.5.5 0 010-1h6.793L5.646 1.354a.5.5 0 11.708-.708l3 3a.5.5 0 010 .708l-3 3a.5.5 0 01-.708 0z" fill="#fff"/></svg><svg fill="none" viewBox="0 0 54 54" id="stars" xmlns="http://www.w3.org/2000/svg"><path fill-rule="evenodd" clip-rule="evenodd" d="M8.38.818c.747 0 1.354.607 1.354 1.355a4.853 4.853 0 004.852 4.852 1.354 1.354 0 010 2.709 4.853 4.853 0 00-4.852 4.852 1.354 1.354 0 01-2.709 0 4.853 4.853 0 00-4.852-4.852 1.354 1.354 0 010-2.709 4.853 4.853 0 004.852-4.852c0-.748.607-1.355 1.354-1.355zm21.103 2.483c.56 0 1.063.345 1.264.868l4.305 11.195c.726 1.885 1.013 2.603 1.435 3.197.395.555.88 1.04 1.435 1.435.594.423 1.312.71 3.198 1.435l11.194 4.305a1.354 1.354 0 010 2.528L41.12 32.57c-1.886.725-2.604 1.012-3.198 1.434-.555.395-1.04.88-1.435 1.435-.422.594-.71 1.313-1.434 3.198L30.747 49.83a1.354 1.354 0 01-2.528 0l-4.306-11.194c-.725-1.886-1.012-2.604-1.434-3.198a6.095 6.095 0 00-1.435-1.435c-.594-.422-1.312-.71-3.198-1.434L6.652 28.264a1.354 1.354 0 010-2.528l11.194-4.305c1.886-.725 2.604-1.012 3.198-1.435a6.095 6.095 0 001.435-1.435c.422-.594.71-1.312 1.434-3.197L28.22 4.169a1.354 1.354 0 011.264-.868zm3.042 13.035c-1.072-2.785-5.012-2.785-6.084 0l-.065.17c-.637 1.658-1.045 2.718-1.69 3.625a8.801 8.801 0 01-2.072 2.073c-.907.644-1.968 1.052-3.625 1.689l-.17.066c-2.786 1.07-2.786 5.012 0 6.083l.17.065c1.657.637 2.718 1.045 3.625 1.69a8.803 8.803 0 012.072 2.073c.645.906 1.053 1.967 1.69 3.624l.065.17c1.072 2.786 5.012 2.786 6.084 0l.065-.17c.637-1.657 1.045-2.718 1.69-3.624a8.803 8.803 0 012.072-2.073c.907-.645 1.967-1.053 3.625-1.69l.17-.065c2.785-1.072 2.785-5.012 0-6.083l-.17-.066c-1.658-.637-2.718-1.045-3.625-1.69a8.801 8.801 0 01-2.072-2.072c-.645-.907-1.053-1.967-1.69-3.624l-.066-.171zM8.379 38.06c.748 0 1.355.606 1.355 1.354a4.853 4.853 0 004.852 4.853 1.354 1.354 0 010 2.708 4.853 4.853 0 00-4.852 4.853 1.354 1.354 0 01-2.709 0 4.853 4.853 0 00-4.852-4.853 1.354 1.354 0 110-2.708 4.853 4.853 0 004.852-4.853c0-.748.607-1.354 1.354-1.354z" fill="url(#fpaint0_linear_2014_338)"/><defs><linearGradient id="fpaint0_linear_2014_338" x1="27.098" y1=".818" x2="27.098" y2="66.709" gradientUnits="userSpaceOnUse"><stop stop-color="#fff"/><stop offset="1" stop-color="#FFFDFD" stop-opacity=".04"/></linearGradient></defs></svg><svg fill="none" viewBox="0 0 24 24" id="tg" xmlns="http://www.w3.org/2000/svg"><path fill-rule="evenodd" clip-rule="evenodd" d="M1.65 10.332c6.442-3.387 10.738-5.62 12.888-6.699C20.675.553 21.95.018 22.782 0c.182-.004.591.051.856.31.223.22.285.515.314.722.03.208.066.68.037 1.05-.332 4.217-1.771 14.45-2.503 19.172-.31 1.998-.92 2.668-1.51 2.734-1.284.143-2.259-1.023-3.502-2.006-1.945-1.539-3.043-2.497-4.931-3.998-2.182-1.735-.768-2.689.476-4.247.325-.408 5.98-6.614 6.089-7.177.014-.07.026-.333-.103-.471-.13-.139-.32-.092-.457-.054-.196.053-3.303 2.532-9.322 7.435-.882.73-1.681 1.086-2.397 1.068-.789-.02-2.307-.539-3.435-.981-1.384-.543-2.484-.83-2.388-1.752.05-.48.598-.971 1.644-1.473z" fill="#292824"/></svg><svg fill="none" viewBox="0 0 25 24" id="vk" xmlns="http://www.w3.org/2000/svg"><path fill-rule="evenodd" clip-rule="evenodd" d="M1.746 1.687C0 3.374 0 6.09 0 11.52v.96c0 5.43 0 8.146 1.746 9.833C3.493 24 6.303 24 11.924 24h.994c5.621 0 8.432 0 10.178-1.687 1.747-1.687 1.747-4.402 1.747-9.833v-.96c0-5.43 0-8.146-1.747-9.833C21.35 0 18.54 0 12.918 0h-.994C6.304 0 3.493 0 1.746 1.687zM4.192 7.3c.135 6.24 3.364 9.99 9.026 9.99h.321v-3.57c2.08.2 3.654 1.67 4.285 3.57h2.94c-.807-2.84-2.93-4.41-4.254-5.01 1.325-.74 3.188-2.54 3.633-4.98h-2.67c-.58 1.98-2.298 3.78-3.934 3.95V7.3h-2.67v6.92c-1.657-.4-3.747-2.34-3.84-6.92H4.191z" fill="#292824"/></svg><svg fill="none" viewBox="0 0 24 24" id="whatsup" xmlns="http://www.w3.org/2000/svg"><path d="M17.758 13.79c-.046-.022-1.796-.884-2.107-.995a1.21 1.21 0 00-.408-.09c-.236 0-.434.117-.589.348-.175.26-.704.879-.867 1.063-.022.025-.05.054-.068.054a6.04 6.04 0 01-.368-.147c-1.877-.815-3.302-2.776-3.497-3.107-.028-.047-.03-.069-.03-.069a.564.564 0 01.103-.12c.095-.095.198-.22.298-.34l.141-.167c.145-.169.21-.3.285-.452l.039-.078a.815.815 0 00-.024-.768c-.041-.083-.78-1.866-.859-2.053-.188-.452-.438-.663-.785-.663-.032 0 0 0-.135.006-.164.007-1.06.125-1.455.374-.42.264-1.13 1.108-1.13 2.59 0 1.335.848 2.596 1.211 3.075.01.012.026.037.05.072 1.393 2.034 3.129 3.541 4.889 4.244 1.694.677 2.497.755 2.953.755.192 0 .345-.015.48-.028l.086-.008c.586-.052 1.872-.719 2.165-1.532.23-.64.29-1.34.138-1.594-.105-.173-.287-.26-.516-.37z" fill="#292824"/><path d="M12.213 0C5.713 0 .425 5.248.425 11.7c0 2.086.558 4.128 1.616 5.916L.017 23.588a.312.312 0 00.389.397l6.228-1.979c1.704.911 3.63 1.392 5.58 1.392C18.711 23.398 24 18.15 24 11.7 24 5.248 18.712 0 12.213 0zm0 20.96a9.34 9.34 0 01-5.138-1.531.311.311 0 00-.265-.037l-3.12.992 1.007-2.971a.312.312 0 00-.044-.284 9.135 9.135 0 01-1.777-5.43c0-5.107 4.188-9.262 9.337-9.262 5.148 0 9.336 4.155 9.336 9.263 0 5.106-4.188 9.26-9.336 9.26z" fill="#292824"/></svg></svg>